<?xml version="1.0" encoding="UTF-8"?>
<svg width="48px" height="48px" viewBox="0 0 48 48" version="1.1" xmlns="http://www.w3.org/2000/svg" xmlns:xlink="http://www.w3.org/1999/xlink">
    <title>Gadget</title>
    <g id="AIVANCITY-HOME" stroke="none" stroke-width="1" fill="none" fill-rule="evenodd">
        <g transform="translate(-1701.000000, -479.000000)" fill="#FFFFFF" id="BANNER">
            <g id="Gadget" transform="translate(1701.000000, 478.000000)">
                <g id="Gadget" transform="translate(0.000000, 1.000000)">
                    <path d="M24.9633882,16.2429882 C24.1248,16.1011059 23.2163294,16.0241647 22.2295059,16.0241647 C16.3120941,16.0241647 13.1010353,18.8222824 13.1010353,21.9874588 C13.1010353,23.9604 14.6151529,25.4279294 16.6332706,25.4279294 C18.8349176,25.4279294 20.4866824,24.0521647 20.4866824,22.2168706 C20.4866824,20.3364 19.0184471,19.3269882 17.3215059,19.3269882 C17.0003294,19.3269882 16.8626824,19.1434588 16.8626824,19.0058118 C16.8626824,18.0888706 18.4219765,17.0794588 20.6702118,17.0794588 C22.6085647,17.0794588 23.9793882,18.7234588 23.9793882,20.9695765 C23.9793882,29.3646353 11.9998588,24.7396941 11.9998588,32.7218118 C11.9998588,36.0246353 14.7986824,37.9968706 18.3302118,37.9968706 C22.7631529,37.9968706 24.9471529,34.9058118 24.9633882,34.2112235 L24.9633882,16.2429882 Z M23.6370353,32.5742824 C23.6370353,34.2874588 22.4377412,35.1832235 20.9045647,35.1832235 C20.0158588,35.1832235 18.3252706,34.3728706 18.3252706,32.1712235 C18.3252706,28.0241647 21.1996235,28.1667529 23.6370353,26.1867529 L23.6370353,32.5742824 Z" id="Fill-1"></path>
                    <path d="M25.4642118,12.0571765 C25.4642118,10.2592941 27.1286824,9 29.1496235,9 C31.2898588,9 32.7559765,10.1872941 32.7559765,11.9851765 C32.7559765,13.8197647 31.1310353,15.0783529 29.1100941,15.0783529 C26.9303294,15.0783529 25.4642118,13.8917647 25.4642118,12.0571765 Z" id="Fill-4"></path>
                    <path d="M34.9498588,33.0938118 C34.9498588,34.2324 34.2588,35.1338118 33.3023294,35.1338118 C32.3451529,35.1338118 32.0268,34.2846353 32.0268,33.0098118 L32.0268,23.6229882 C32.0268,19.3806353 29.7228,17.3815765 26.1220941,16.5924 L26.1220941,34.2832235 C26.1870353,36.6592235 28.6293882,37.9488706 30.6602118,37.9488706 C33.9806824,37.9488706 35.7700941,35.6505176 35.7700941,33.0938118 L34.9498588,33.0938118 Z" id="Fill-6"></path>
                </g>
            </g>
        </g>
    </g>
</svg>