<svg width="132" height="132" viewBox="0 0 132 132" fill="none" xmlns="http://www.w3.org/2000/svg">
<path d="M19.2311 56.2496C-5.42273 69.9469 -5.42013 92.1522 19.2311 105.849C43.8823 119.547 83.8544 119.544 108.508 105.849C133.162 92.1547 133.159 69.9469 108.508 56.2496C83.857 42.5523 43.8849 42.5548 19.2311 56.2496Z" fill="#0D355F"/>
<path d="M24.4623 88.704C24.3099 88.6019 24.1914 88.4567 24.1218 88.287C24.0522 88.1173 24.0347 87.9307 24.0715 87.751L33.433 46.3189C33.5457 45.9182 33.7999 45.5721 34.1484 45.3447L89.8524 13.1895C90.0228 13.0994 90.212 13.0508 90.4046 13.0476C90.5973 13.0444 90.788 13.0867 90.9612 13.171C91.1112 13.2738 91.2275 13.4186 91.2956 13.5871C91.3637 13.7557 91.3805 13.9407 91.344 14.1188L81.9799 55.5509C81.8671 55.9522 81.6118 56.2985 81.2619 56.5251L25.5711 88.6803C25.4011 88.7712 25.2122 88.8207 25.0195 88.8248C24.8268 88.829 24.6359 88.7876 24.4623 88.704Z" fill="#124479"/>
<path d="M34.5049 46.9313L25.1434 88.3793C25.0642 88.733 25.2543 88.8756 25.5711 88.6935L81.2751 56.5382C81.625 56.3117 81.8803 55.9653 81.9932 55.5641L91.3441 14.1187C91.4233 13.7623 91.2332 13.6224 90.9164 13.8046L35.2124 45.9598C34.8675 46.1881 34.6163 46.533 34.5049 46.9313Z" fill="#0D355F"/>
<path d="M92.0225 13.7835C91.8491 13.6995 91.6582 13.6577 91.4656 13.6614C91.2729 13.665 91.0838 13.7141 90.9137 13.8046L35.2097 45.9598C35.0481 46.0644 34.9182 46.2112 34.834 46.3842C34.7498 46.5573 34.7144 46.7502 34.7319 46.9419L42.0632 98.2608C42.0989 98.4553 42.1732 98.6408 42.2815 98.8062C42.3898 98.9717 42.5301 99.1139 42.6941 99.2244C42.8669 99.309 43.0574 99.3511 43.2497 99.3475C43.4421 99.3438 43.6308 99.2944 43.8003 99.2033L99.4937 67.056C99.6557 66.9512 99.7859 66.804 99.8702 66.6304C99.9544 66.4568 99.9895 66.2634 99.9715 66.0713L92.664 14.7471C92.6271 14.5516 92.5513 14.3656 92.4411 14.2001C92.3309 14.0346 92.1886 13.8929 92.0225 13.7835Z" fill="#124479"/>
<path d="M35.8145 47.5623L43.1352 98.8812C43.1366 98.9577 43.1593 99.0324 43.2005 99.0968C43.2418 99.1613 43.3001 99.2131 43.369 99.2464C43.4379 99.2798 43.5147 99.2934 43.5908 99.2858C43.667 99.2782 43.7395 99.2496 43.8005 99.2033L99.4939 67.056C99.6559 66.9512 99.7861 66.804 99.8704 66.6304C99.9546 66.4568 99.9897 66.2634 99.9717 66.0713L92.6642 14.7471C92.6633 14.6703 92.641 14.5953 92.5999 14.5305C92.5588 14.4657 92.5006 14.4135 92.4316 14.3798C92.3626 14.3462 92.2856 14.3323 92.2093 14.3398C92.1329 14.3473 92.0601 14.3759 91.999 14.4223L36.295 46.5775C36.1325 46.682 36.0017 46.8291 35.917 47.0027C35.8323 47.1763 35.7968 47.3699 35.8145 47.5623Z" fill="#124479"/>
<path d="M91.357 13.9154C91.3561 13.7667 91.3185 13.6205 91.2476 13.4897C91.1767 13.3589 91.0746 13.2476 90.9505 13.1657C90.7768 13.0826 90.5861 13.0412 90.3936 13.0448C90.2011 13.0485 90.0121 13.0971 89.8417 13.1868L34.1377 45.342C33.9678 45.4484 33.82 45.5864 33.7021 45.7486C33.5713 45.9172 33.4752 46.1101 33.4196 46.3162L32.0996 52.169L33.1715 52.7842L90.0238 19.969L91.3438 14.1187C91.3564 14.0517 91.3617 13.9836 91.3597 13.9154H91.357Z" fill="#7DB834"/>
<path opacity="0.2" d="M91.3439 14.1187C91.4231 13.7623 91.233 13.6224 90.9162 13.8046L35.2122 45.9598C34.8643 46.1867 34.6102 46.5317 34.4968 46.9313L33.1768 52.7842L90.0239 19.969L91.3439 14.1187Z" fill="black"/>
<path opacity="0.1" d="M34.7845 46.3663C34.6534 46.5334 34.5581 46.7257 34.5046 46.9313L33.1846 52.7842L32.1128 52.1664L33.4328 46.3135C33.4884 46.1075 33.5844 45.9145 33.7153 45.7459L34.7845 46.3663Z" fill="black"/>
<path opacity="0.4" d="M91.3571 13.9128C91.3307 13.7148 91.1591 13.6488 90.9136 13.8046L35.2096 45.9571C35.0385 46.0631 34.8904 46.2022 34.774 46.3663L33.7021 45.7459C33.82 45.5838 33.9679 45.4458 34.1377 45.3394L89.8417 13.1842C90.0121 13.0945 90.2011 13.0459 90.3936 13.0422C90.5862 13.0385 90.7769 13.0799 90.9506 13.1631C91.0747 13.245 91.1767 13.3563 91.2476 13.4871C91.3185 13.6178 91.3561 13.7641 91.3571 13.9128Z" fill="white"/>
<path d="M92.7193 15.2381L92.6639 14.7471C92.6599 14.723 92.6546 14.6992 92.648 14.6758C92.6492 14.6688 92.6492 14.6617 92.648 14.6547C92.5583 14.2994 92.3413 13.9894 92.0382 13.7835C91.8648 13.6995 91.6739 13.6577 91.4813 13.6614C91.2886 13.665 91.0995 13.7141 90.9294 13.8046L35.2254 45.9598C35.0568 46.0642 34.9234 46.2169 34.8426 46.398C34.7601 46.5667 34.7272 46.7552 34.7476 46.9419L35.8036 54.2943L36.8754 54.9147L93.7014 22.1021L92.7193 15.2381Z" fill="#7DB834"/>
<path opacity="0.1" d="M36.8652 54.912L35.7933 54.2916L34.7373 46.9392C34.7169 46.7526 34.7499 46.564 34.8324 46.3954L35.9068 47.0131C35.8225 47.1812 35.7885 47.3701 35.8092 47.557L36.8652 54.912Z" fill="black"/>
<path opacity="0.4" d="M92.6325 14.6547C92.6174 14.5882 92.5858 14.5265 92.5406 14.4754C92.4954 14.4243 92.4381 14.3854 92.3739 14.3623C92.3098 14.3391 92.2408 14.3325 92.1735 14.343C92.1061 14.3535 92.0424 14.3808 91.9883 14.4223L36.2843 46.5775C36.115 46.6812 35.9815 46.8341 35.9015 47.0158L34.8481 46.398C34.9296 46.2166 35.0628 46.0633 35.2309 45.9571L90.935 13.8046C91.1051 13.7141 91.2942 13.665 91.4868 13.6614C91.6795 13.6577 91.8703 13.6995 92.0438 13.7835C92.3396 13.9924 92.5489 14.3022 92.6325 14.6547Z" fill="white"/>
<path d="M51.6516 90.3778L50.9864 85.7023C50.9854 85.6414 50.9678 85.582 50.9354 85.5304C50.9029 85.4789 50.857 85.4372 50.8025 85.41C50.7481 85.3828 50.6872 85.371 50.6265 85.376C50.5658 85.381 50.5076 85.4025 50.4584 85.4383L45.6034 88.242C45.4726 88.3257 45.3676 88.444 45.3 88.5838C45.2324 88.7237 45.2049 88.8795 45.2206 89.034L45.8832 93.72C45.8832 93.7813 45.9003 93.8414 45.9325 93.8935C45.9647 93.9456 46.0109 93.9878 46.0657 94.0152C46.1205 94.0426 46.1818 94.0542 46.2429 94.0487C46.3039 94.0432 46.3622 94.0208 46.4112 93.984L51.2662 91.1803C51.3995 91.0964 51.5063 90.9765 51.5745 90.8345C51.6427 90.6926 51.6694 90.5342 51.6516 90.3778Z" fill="#7DB834"/>
<path d="M59.16 86.0481L58.4921 81.3753C58.4921 81.3141 58.475 81.254 58.4428 81.2019C58.4106 81.1497 58.3645 81.1076 58.3097 81.0802C58.2548 81.0528 58.1935 81.0412 58.1324 81.0467C58.0714 81.0522 58.0131 81.0746 57.9641 81.1113L53.1091 83.9124C52.9785 83.9963 52.8736 84.1147 52.8061 84.2544C52.7385 84.3942 52.7109 84.5499 52.7263 84.7044L53.3942 89.3798C53.3942 89.4411 53.4113 89.5012 53.4435 89.5533C53.4757 89.6054 53.5218 89.6476 53.5767 89.675C53.6315 89.7024 53.6928 89.714 53.7539 89.7085C53.8149 89.703 53.8732 89.6806 53.9222 89.6438L58.7772 86.8401C58.9082 86.7567 59.0134 86.6384 59.081 86.4985C59.1487 86.3586 59.176 86.2027 59.16 86.0481Z" fill="#EBEBEB"/>
<path d="M66.668 81.7186L66.0001 77.0458C66.0001 76.9845 65.983 76.9244 65.9508 76.8723C65.9186 76.8201 65.8725 76.778 65.8177 76.7506C65.7629 76.7232 65.7015 76.7116 65.6405 76.7171C65.5794 76.7226 65.5211 76.745 65.4721 76.7818L60.6145 79.5881C60.4839 79.672 60.379 79.7904 60.3115 79.9301C60.2439 80.0699 60.2163 80.2256 60.2317 80.3801L60.8996 85.0555C60.8996 85.1168 60.9167 85.1769 60.9489 85.229C60.9811 85.2811 61.0272 85.3233 61.082 85.3507C61.1368 85.3781 61.1982 85.3897 61.2592 85.3842C61.3203 85.3787 61.3786 85.3563 61.4276 85.3195L66.2826 82.5158C66.415 82.4323 66.5212 82.3133 66.5894 82.1724C66.6575 82.0314 66.6848 81.8742 66.668 81.7186Z" fill="#EBEBEB"/>
<path d="M74.1839 77.3916L73.5159 72.7162C73.5159 72.6549 73.4989 72.5948 73.4667 72.5427C73.4344 72.4905 73.3883 72.4484 73.3335 72.421C73.2787 72.3936 73.2173 72.382 73.1563 72.3875C73.0953 72.393 73.037 72.4154 72.9879 72.4522L68.1119 75.2611C67.9808 75.3446 67.8756 75.4629 67.808 75.6028C67.7404 75.7427 67.7131 75.8986 67.7291 76.0531L68.397 80.7259C68.397 80.7872 68.414 80.8473 68.4463 80.8994C68.4785 80.9516 68.5246 80.9937 68.5794 81.0211C68.6342 81.0485 68.6956 81.0601 68.7566 81.0546C68.8177 81.0491 68.8759 81.0267 68.925 80.9899L73.7799 78.1889C73.9153 78.1073 74.025 77.9892 74.0964 77.8483C74.1678 77.7073 74.1981 77.549 74.1839 77.3916Z" fill="#EBEBEB"/>
<path d="M81.6842 73.062L81.0163 68.376C81.0163 68.3147 80.9992 68.2547 80.967 68.2025C80.9348 68.1504 80.8887 68.1083 80.8339 68.0809C80.7791 68.0534 80.7177 68.0419 80.6567 68.0474C80.5956 68.0529 80.5373 68.0752 80.4883 68.112L75.6333 70.9157C75.5023 70.9992 75.3971 71.1175 75.3295 71.2573C75.2619 71.3972 75.2345 71.5532 75.2505 71.7077L75.9185 76.3805C75.9185 76.4418 75.9355 76.5019 75.9677 76.554C76 76.6061 76.0461 76.6482 76.1009 76.6757C76.1557 76.7031 76.2171 76.7147 76.2781 76.7092C76.3391 76.7037 76.3974 76.6813 76.4465 76.6445L81.312 73.8487C81.4398 73.7639 81.542 73.6458 81.6076 73.5072C81.6732 73.3685 81.6997 73.2146 81.6842 73.062Z" fill="#EBEBEB"/>
<path d="M89.1925 68.7324L88.5246 64.057C88.5246 63.9957 88.5075 63.9356 88.4753 63.8835C88.4431 63.8314 88.397 63.7892 88.3422 63.7618C88.2874 63.7344 88.226 63.7228 88.165 63.7283C88.1039 63.7338 88.0456 63.7562 87.9966 63.793L83.1416 66.5967C83.0106 66.6801 82.9054 66.7984 82.8378 66.9383C82.7702 67.0782 82.7428 67.2341 82.7588 67.3887L83.4241 72.072C83.4241 72.1333 83.4412 72.1934 83.4734 72.2455C83.5056 72.2977 83.5517 72.3398 83.6065 72.3672C83.6614 72.3946 83.7227 72.4062 83.7838 72.4007C83.8448 72.3952 83.9031 72.3728 83.9521 72.336L88.8071 69.5324C88.9397 69.4484 89.0461 69.3289 89.1142 69.1875C89.1823 69.0461 89.2095 68.8885 89.1925 68.7324Z" fill="#EBEBEB"/>
<path d="M96.7007 64.416L96.0328 59.7406C96.0328 59.6793 96.0157 59.6192 95.9835 59.5671C95.9512 59.515 95.9051 59.4728 95.8503 59.4454C95.7955 59.418 95.7341 59.4064 95.6731 59.4119C95.6121 59.4174 95.5538 59.4398 95.5048 59.4766L90.6498 62.2803C90.519 62.364 90.4139 62.4823 90.3463 62.6221C90.2788 62.7619 90.2513 62.9178 90.267 63.0723L90.9323 67.7477C90.9332 67.8086 90.9509 67.868 90.9833 67.9196C91.0157 67.9711 91.0616 68.0128 91.1161 68.04C91.1706 68.0673 91.2315 68.079 91.2922 68.074C91.3528 68.069 91.411 68.0475 91.4603 68.0117L96.3152 65.208C96.4465 65.1247 96.5521 65.0065 96.6202 64.8666C96.6882 64.7268 96.7161 64.5708 96.7007 64.416Z" fill="#EBEBEB"/>
<path d="M50.3476 81.2301L49.6797 76.56C49.6788 76.4991 49.6611 76.4396 49.6287 76.3881C49.5963 76.3365 49.5503 76.2949 49.4959 76.2677C49.4414 76.2404 49.3805 76.2287 49.3198 76.2337C49.2592 76.2387 49.201 76.2602 49.1517 76.296L44.2968 79.0997C44.1659 79.1834 44.0609 79.3017 43.9933 79.4415C43.9257 79.5813 43.8983 79.7372 43.914 79.8917L44.5792 84.5671C44.5802 84.628 44.5978 84.6874 44.6303 84.739C44.6627 84.7905 44.7086 84.8322 44.7631 84.8594C44.8175 84.8867 44.8784 84.8984 44.9391 84.8934C44.9998 84.8884 45.058 84.8669 45.1072 84.8311L49.9622 82.0274C50.0935 81.9428 50.1989 81.8236 50.2669 81.6829C50.3349 81.5423 50.3629 81.3856 50.3476 81.2301Z" fill="#7DB834"/>
<path d="M57.8555 76.9006L57.1875 72.2251C57.1866 72.1643 57.1689 72.1048 57.1365 72.0533C57.1041 72.0017 57.0582 71.9601 57.0037 71.9328C56.9492 71.9056 56.8883 71.8938 56.8277 71.8988C56.767 71.9038 56.7088 71.9254 56.6595 71.9611L51.8046 74.7648C51.6738 74.8485 51.5687 74.9669 51.5011 75.1067C51.4336 75.2465 51.4061 75.4023 51.4218 75.5568L52.0871 80.2323C52.088 80.2932 52.1057 80.3526 52.1381 80.4042C52.1705 80.4557 52.2164 80.4974 52.2709 80.5246C52.3254 80.5518 52.3863 80.5636 52.4469 80.5586C52.5076 80.5536 52.5658 80.532 52.6151 80.4963L57.47 77.6926C57.6005 77.6084 57.7054 77.49 57.7733 77.3504C57.8413 77.2108 57.8697 77.0552 57.8555 76.9006Z" fill="#EBEBEB"/>
<path d="M65.3638 72.571L64.6958 67.8956C64.6949 67.8347 64.6772 67.7752 64.6448 67.7237C64.6124 67.6721 64.5665 67.6305 64.512 67.6032C64.4575 67.576 64.3966 67.5642 64.336 67.5692C64.2753 67.5742 64.2171 67.5958 64.1678 67.6316L59.3129 70.4352C59.1821 70.5189 59.077 70.6373 59.0094 70.7771C58.9419 70.9169 58.9144 71.0727 58.9301 71.2272L59.5954 75.9027C59.5963 75.9636 59.614 76.023 59.6464 76.0746C59.6788 76.1261 59.7247 76.1678 59.7792 76.195C59.8337 76.2222 59.8946 76.234 59.9552 76.229C60.0159 76.224 60.0741 76.2024 60.1234 76.1667L64.9783 73.363C65.1088 73.2788 65.2137 73.1604 65.2816 73.0208C65.3496 72.8812 65.378 72.7256 65.3638 72.571Z" fill="#EBEBEB"/>
<path d="M72.8642 68.2413L72.1963 63.5659C72.1953 63.505 72.1777 63.4456 72.1453 63.394C72.1128 63.3425 72.0669 63.3008 72.0124 63.2736C71.958 63.2464 71.8971 63.2346 71.8364 63.2396C71.7757 63.2446 71.7175 63.2661 71.6683 63.3019L66.8186 66.1109C66.688 66.1948 66.5831 66.3132 66.5156 66.4529C66.448 66.5927 66.4204 66.7484 66.4358 66.9029L67.1011 71.5783C67.102 71.6392 67.1197 71.6987 67.1521 71.7502C67.1845 71.8017 67.2304 71.8434 67.2849 71.8706C67.3394 71.8979 67.4003 71.9096 67.461 71.9046C67.5216 71.8996 67.5798 71.8781 67.6291 71.8423L72.484 69.0386C72.6146 68.9535 72.7191 68.8341 72.7862 68.6934C72.8533 68.5528 72.8803 68.3963 72.8642 68.2413Z" fill="#EBEBEB"/>
<path d="M80.3799 63.9118L79.712 59.239C79.712 59.1777 79.6949 59.1176 79.6627 59.0655C79.6305 59.0134 79.5844 58.9712 79.5296 58.9438C79.4748 58.9164 79.4134 58.9048 79.3524 58.9103C79.2913 58.9158 79.233 58.9382 79.184 58.975L74.3264 61.776C74.1958 61.8599 74.0909 61.9783 74.0234 62.1181C73.9558 62.2579 73.9282 62.4136 73.9436 62.568L74.6089 67.2435C74.6098 67.3044 74.6275 67.3638 74.6599 67.4154C74.6923 67.4669 74.7383 67.5086 74.7927 67.5358C74.8472 67.563 74.9081 67.5748 74.9688 67.5698C75.0295 67.5648 75.0876 67.5432 75.1369 67.5075L79.9918 64.6985C80.1221 64.6153 80.2272 64.498 80.2956 64.3593C80.364 64.2206 80.3932 64.0659 80.3799 63.9118Z" fill="#EBEBEB"/>
<path d="M87.8881 59.5822L87.2202 54.912C87.2202 54.8507 87.2031 54.7907 87.1709 54.7385C87.1387 54.6864 87.0926 54.6443 87.0378 54.6169C86.983 54.5895 86.9216 54.5779 86.8606 54.5834C86.7995 54.5889 86.7412 54.6113 86.6922 54.648L81.8399 57.4544C81.7089 57.5378 81.6036 57.6561 81.536 57.796C81.4684 57.9359 81.4411 58.0918 81.4571 58.2464L82.1224 62.9192C82.1233 62.98 82.141 63.0395 82.1734 63.091C82.2058 63.1426 82.2517 63.1842 82.3062 63.2115C82.3607 63.2387 82.4216 63.2505 82.4823 63.2455C82.5429 63.2405 82.6011 63.2189 82.6504 63.1832L87.5053 60.3795C87.6364 60.2947 87.7414 60.1754 87.809 60.0347C87.8765 59.894 87.9039 59.7374 87.8881 59.5822Z" fill="#EBEBEB"/>
<path d="M95.3966 55.2552L94.7287 50.5798C94.7287 50.5185 94.7116 50.4584 94.6794 50.4063C94.6472 50.3541 94.6011 50.312 94.5463 50.2846C94.4915 50.2572 94.4301 50.2456 94.3691 50.2511C94.308 50.2566 94.2497 50.279 94.2007 50.3158L89.3431 53.1194C89.2128 53.2035 89.1083 53.3219 89.0412 53.4617C88.9741 53.6015 88.947 53.7572 88.963 53.9114L89.6282 58.5842C89.6292 58.6451 89.6468 58.7046 89.6792 58.7561C89.7117 58.8077 89.7576 58.8493 89.8121 58.8766C89.8665 58.9038 89.9274 58.9156 89.9881 58.9106C90.0488 58.9056 90.107 58.884 90.1562 58.8482L95.0112 56.0472C95.1414 55.9628 95.2462 55.8444 95.3141 55.7048C95.382 55.5652 95.4106 55.4098 95.3966 55.2552Z" fill="#EBEBEB"/>
<path d="M49.0408 72.072L48.3755 67.3966C48.3745 67.3357 48.3569 67.2763 48.3245 67.2247C48.2921 67.1732 48.2461 67.1315 48.1916 67.1043C48.1372 67.077 48.0763 67.0653 48.0156 67.0703C47.9549 67.0753 47.8968 67.0968 47.8475 67.1326L42.9872 69.96C42.8571 70.0444 42.7525 70.1628 42.685 70.3025C42.6175 70.4421 42.5897 70.5976 42.6044 70.752L43.2724 75.4248C43.2724 75.4861 43.2894 75.5462 43.3216 75.5983C43.3539 75.6505 43.4 75.6926 43.4548 75.72C43.5096 75.7474 43.571 75.759 43.632 75.7535C43.693 75.748 43.7513 75.7256 43.8004 75.6888L48.658 72.864C48.7886 72.7801 48.8934 72.6618 48.961 72.522C49.0285 72.3822 49.0561 72.2265 49.0408 72.072Z" fill="#7DB834"/>
<path d="M56.5487 67.753L55.8834 63.0776C55.8824 63.0167 55.8648 62.9572 55.8324 62.9057C55.8 62.8541 55.754 62.8125 55.6996 62.7852C55.6451 62.758 55.5842 62.7462 55.5235 62.7512C55.4628 62.7562 55.4047 62.7778 55.3554 62.8136L50.5004 65.6172C50.3703 65.7016 50.2657 65.82 50.1982 65.9597C50.1307 66.0993 50.1028 66.2548 50.1176 66.4092L50.7855 71.0847C50.7865 71.1456 50.8041 71.205 50.8366 71.2566C50.869 71.3081 50.9149 71.3498 50.9694 71.377C51.0239 71.4042 51.0847 71.416 51.1454 71.411C51.2061 71.406 51.2643 71.3845 51.3135 71.3487L56.1685 68.545C56.2988 68.461 56.4034 68.3425 56.4705 68.2027C56.5376 68.0629 56.5646 67.9073 56.5487 67.753Z" fill="#EBEBEB"/>
<path d="M64.0568 63.4234L63.3915 58.7479C63.3906 58.687 63.373 58.6276 63.3405 58.576C63.3081 58.5245 63.2622 58.4828 63.2077 58.4556C63.1532 58.4284 63.0924 58.4166 63.0317 58.4216C62.971 58.4266 62.9128 58.4481 62.8635 58.4839L58.0086 61.2876C57.8786 61.3721 57.7743 61.4906 57.7068 61.6302C57.6393 61.7698 57.6113 61.9252 57.6258 62.0796L58.2937 66.755C58.2947 66.8159 58.3123 66.8754 58.3447 66.9269C58.3771 66.9785 58.4231 67.0201 58.4776 67.0474C58.532 67.0746 58.5929 67.0864 58.6536 67.0814C58.7143 67.0764 58.7724 67.0548 58.8217 67.019L63.6767 64.2154C63.807 64.1313 63.9115 64.0128 63.9786 63.873C64.0457 63.7333 64.0728 63.5776 64.0568 63.4234Z" fill="#EBEBEB"/>
<path d="M71.5651 59.0938L70.8998 54.4183C70.8989 54.3574 70.8813 54.298 70.8488 54.2464C70.8164 54.1949 70.7705 54.1532 70.716 54.126C70.6615 54.0988 70.6007 54.087 70.54 54.092C70.4793 54.097 70.4211 54.1186 70.3718 54.1543L65.5169 56.958C65.3869 57.0426 65.2826 57.161 65.2151 57.3006C65.1476 57.4402 65.1196 57.5956 65.1341 57.75L65.802 62.4254C65.803 62.4863 65.8206 62.5458 65.853 62.5973C65.8854 62.6489 65.9314 62.6905 65.9858 62.7178C66.0403 62.745 66.1012 62.7568 66.1619 62.7518C66.2226 62.7468 66.2807 62.7252 66.33 62.6894L71.185 59.8858C71.3153 59.8017 71.4198 59.6833 71.4869 59.5435C71.554 59.4037 71.5811 59.248 71.5651 59.0938Z" fill="#EBEBEB"/>
<path d="M79.0734 54.7642L78.4081 50.0887C78.4072 50.0278 78.3896 49.9684 78.3571 49.9168C78.3247 49.8653 78.2788 49.8236 78.2243 49.7964C78.1698 49.7692 78.109 49.7574 78.0483 49.7624C77.9876 49.7674 77.9294 49.789 77.8801 49.8247L73.0252 52.6284C72.8952 52.713 72.7909 52.8314 72.7234 52.971C72.6559 53.1106 72.6279 53.266 72.6424 53.4204L73.3103 58.0959C73.3113 58.1567 73.3289 58.2162 73.3613 58.2677C73.3937 58.3193 73.4397 58.3609 73.4941 58.3882C73.5486 58.4154 73.6095 58.4272 73.6702 58.4222C73.7309 58.4172 73.789 58.3956 73.8383 58.3599L78.6933 55.5562C78.8236 55.4721 78.9281 55.3537 78.9952 55.2139C79.0623 55.0741 79.0894 54.9184 79.0734 54.7642Z" fill="#EBEBEB"/>
<path d="M86.5918 50.424L85.9265 45.7486C85.9256 45.6877 85.9079 45.6282 85.8755 45.5767C85.8431 45.5252 85.7972 45.4835 85.7427 45.4563C85.6882 45.429 85.6274 45.4173 85.5667 45.4223C85.506 45.4273 85.4478 45.4488 85.3985 45.4846L80.5198 48.312C80.3899 48.3966 80.2855 48.5151 80.218 48.6547C80.1505 48.7943 80.1225 48.9497 80.137 49.104L80.8049 53.7795C80.8059 53.8404 80.8235 53.8998 80.856 53.9513C80.8884 54.0029 80.9343 54.0446 80.9888 54.0718C81.0432 54.099 81.1041 54.1108 81.1648 54.1058C81.2255 54.1008 81.2837 54.0792 81.3329 54.0435L86.1985 51.216C86.3314 51.1339 86.4388 51.0162 86.5083 50.8762C86.5778 50.7362 86.6068 50.5796 86.5918 50.424Z" fill="#EBEBEB"/>
<path d="M94.0897 46.105L93.4244 41.4322C93.4235 41.3713 93.4058 41.3118 93.3734 41.2603C93.341 41.2087 93.295 41.1671 93.2406 41.1399C93.1861 41.1126 93.1252 41.1009 93.0645 41.1059C93.0038 41.1109 92.9457 41.1324 92.8964 41.1682L88.0414 43.9692C87.9113 44.0536 87.8067 44.172 87.7392 44.3117C87.6717 44.4513 87.6439 44.6068 87.6586 44.7612L88.3266 49.4367C88.3275 49.4975 88.3452 49.557 88.3776 49.6085C88.41 49.6601 88.4559 49.7017 88.5104 49.729C88.5649 49.7562 88.6258 49.768 88.6864 49.763C88.7471 49.758 88.8053 49.7364 88.8546 49.7007L93.7201 46.8917C93.8478 46.807 93.9499 46.6888 94.015 46.5501C94.0802 46.4114 94.106 46.2574 94.0897 46.105Z" fill="#EBEBEB"/>
<path d="M47.7367 62.9323L47.0687 58.2595C47.0687 58.1982 47.0517 58.1381 47.0195 58.086C46.9872 58.0339 46.9411 57.9918 46.8863 57.9643C46.8315 57.9369 46.7701 57.9253 46.7091 57.9308C46.6481 57.9363 46.5898 57.9587 46.5407 57.9955L41.6858 60.7965C41.5552 60.8805 41.4503 60.9988 41.3828 61.1386C41.3152 61.2784 41.2876 61.4341 41.303 61.5885L41.9762 66.264C41.9762 66.3253 41.9932 66.3853 42.0255 66.4375C42.0577 66.4896 42.1038 66.5317 42.1586 66.5591C42.2134 66.5866 42.2748 66.5982 42.3358 66.5927C42.3968 66.5871 42.4551 66.5648 42.5042 66.528L47.3591 63.7243C47.4892 63.6402 47.5933 63.5216 47.66 63.3817C47.7267 63.2419 47.7532 63.0863 47.7367 62.9323Z" fill="#7DB834"/>
<path d="M55.2448 58.608L54.5768 53.9352C54.5768 53.8739 54.5598 53.8139 54.5276 53.7617C54.4953 53.7096 54.4492 53.6675 54.3944 53.6401C54.3396 53.6127 54.2782 53.6011 54.2172 53.6066C54.1562 53.6121 54.0979 53.6345 54.0488 53.6712L49.1939 56.4749C49.0629 56.5584 48.9576 56.6767 48.89 56.8166C48.8224 56.9564 48.7951 57.1124 48.8111 57.2669L49.479 61.9397C49.479 62.001 49.4961 62.0611 49.5283 62.1132C49.5605 62.1653 49.6066 62.2075 49.6614 62.2349C49.7162 62.2623 49.7776 62.2739 49.8386 62.2684C49.8997 62.2629 49.958 62.2405 50.007 62.2037L54.862 59.4C54.993 59.3166 55.0982 59.1983 55.1658 59.0584C55.2334 58.9185 55.2608 58.7626 55.2448 58.608Z" fill="#EBEBEB"/>
<path d="M62.7531 54.2758L62.0851 49.6003C62.0851 49.539 62.0681 49.479 62.0359 49.4268C62.0036 49.3747 61.9575 49.3326 61.9027 49.3052C61.8479 49.2778 61.7866 49.2662 61.7255 49.2717C61.6645 49.2772 61.6062 49.2996 61.5571 49.3363L56.7022 52.14C56.5712 52.2235 56.4659 52.3418 56.3983 52.4817C56.3307 52.6215 56.3034 52.7775 56.3194 52.932L56.9873 57.6048C56.9873 57.6661 57.0044 57.7262 57.0366 57.7783C57.0688 57.8304 57.1149 57.8726 57.1697 57.9C57.2245 57.9274 57.2859 57.939 57.3469 57.9335C57.408 57.928 57.4663 57.9056 57.5153 57.8688L62.3703 55.0678C62.5009 54.9839 62.6057 54.8655 62.6733 54.7257C62.7408 54.5859 62.7685 54.4302 62.7531 54.2758Z" fill="#EBEBEB"/>
<path d="M70.2609 49.9462L69.593 45.2707C69.593 45.2095 69.5759 45.1494 69.5437 45.0972C69.5115 45.0451 69.4654 45.003 69.4105 44.9756C69.3557 44.9482 69.2944 44.9366 69.2333 44.9421C69.1723 44.9476 69.114 44.97 69.065 45.0067L64.21 47.8104C64.079 47.8939 63.9738 48.0122 63.9061 48.1521C63.8385 48.2919 63.8112 48.4479 63.8272 48.6024L64.4925 53.2779C64.4934 53.3387 64.5111 53.3982 64.5435 53.4497C64.5759 53.5013 64.6219 53.5429 64.6763 53.5702C64.7308 53.5974 64.7917 53.6092 64.8524 53.6042C64.9131 53.5992 64.9712 53.5776 65.0205 53.5419L69.8754 50.7382C70.0065 50.6546 70.1119 50.5364 70.18 50.3966C70.248 50.2568 70.276 50.1009 70.2609 49.9462Z" fill="#EBEBEB"/>
<path d="M77.7692 45.6166L77.1013 40.9411C77.1013 40.8799 77.0842 40.8198 77.052 40.7677C77.0198 40.7155 76.9737 40.6734 76.9188 40.646C76.864 40.6186 76.8027 40.607 76.7416 40.6125C76.6806 40.618 76.6223 40.6404 76.5733 40.6771L71.7183 43.4808C71.5873 43.5643 71.4821 43.6826 71.4145 43.8225C71.3468 43.9624 71.3195 44.1183 71.3355 44.2728L72.0008 48.9483C72.0017 49.0092 72.0194 49.0686 72.0518 49.1201C72.0842 49.1717 72.1302 49.2134 72.1846 49.2406C72.2391 49.2678 72.3 49.2796 72.3607 49.2746C72.4214 49.2696 72.4795 49.248 72.5288 49.2123L77.3837 46.4086C77.515 46.3252 77.6206 46.207 77.6887 46.0672C77.7567 45.9273 77.7846 45.7713 77.7692 45.6166Z" fill="#EBEBEB"/>
<path d="M85.272 41.287L84.604 36.6116C84.604 36.5503 84.587 36.4902 84.5548 36.4381C84.5225 36.3859 84.4764 36.3438 84.4216 36.3164C84.3668 36.289 84.3054 36.2774 84.2444 36.2829C84.1834 36.2884 84.1251 36.3108 84.076 36.3476L79.2211 39.1512C79.0903 39.2349 78.9852 39.3533 78.9176 39.4931C78.8501 39.6329 78.8226 39.7887 78.8383 39.9432L79.5062 44.616C79.5072 44.6769 79.5248 44.7364 79.5572 44.7879C79.5896 44.8395 79.6356 44.8811 79.69 44.9084C79.7445 44.9356 79.8054 44.9474 79.8661 44.9424C79.9268 44.9374 79.9849 44.9158 80.0342 44.88L84.8892 42.0764C85.0195 41.9929 85.1243 41.875 85.1919 41.7357C85.2594 41.5963 85.2871 41.4411 85.272 41.287Z" fill="#EBEBEB"/>
<path d="M92.7856 36.96L92.1177 32.2846C92.1177 32.2233 92.1006 32.1632 92.0684 32.1111C92.0362 32.059 91.9901 32.0168 91.9353 31.9894C91.8805 31.962 91.8191 31.9504 91.7581 31.9559C91.697 31.9614 91.6387 31.9838 91.5897 32.0206L86.7348 34.8243C86.6039 34.908 86.4989 35.0263 86.4313 35.1661C86.3637 35.3059 86.3363 35.4618 86.352 35.6163L87.0172 40.2917C87.0182 40.3526 87.0358 40.4121 87.0682 40.4636C87.1007 40.5151 87.1466 40.5568 87.2011 40.584C87.2555 40.6113 87.3164 40.623 87.3771 40.618C87.4378 40.613 87.496 40.5915 87.5452 40.5557L92.4002 37.752C92.5315 37.6687 92.6371 37.5505 92.7051 37.4106C92.7732 37.2708 92.8011 37.1148 92.7856 36.96Z" fill="#EBEBEB"/>
<path d="M46.5828 54.6692L46.4138 53.4759C46.4138 53.4146 46.3967 53.3545 46.3645 53.3024C46.3323 53.2503 46.2862 53.2081 46.2314 53.1807C46.1766 53.1533 46.1152 53.1417 46.0542 53.1472C45.9931 53.1527 45.9348 53.1751 45.8858 53.2119L41.0282 56.0208C40.8974 56.1045 40.7924 56.2229 40.7248 56.3627C40.6572 56.5025 40.6297 56.6583 40.6454 56.8128L40.8117 58.0061C40.8127 58.067 40.8303 58.1265 40.8627 58.178C40.8952 58.2295 40.9411 58.2712 40.9956 58.2984C41.05 58.3257 41.1109 58.3374 41.1716 58.3324C41.2323 58.3274 41.2904 58.3059 41.3397 58.2701L46.2 55.4559C46.3293 55.372 46.4333 55.2544 46.5007 55.1157C46.5682 54.9771 46.5966 54.8227 46.5828 54.6692Z" fill="#E6E6E6"/>
<path d="M54.0911 50.3396L53.9221 49.1463C53.9221 49.085 53.905 49.0249 53.8728 48.9728C53.8406 48.9207 53.7945 48.8785 53.7397 48.8511C53.6849 48.8237 53.6235 48.8121 53.5625 48.8176C53.5014 48.8231 53.4431 48.8455 53.3941 48.8823L48.5365 51.6912C48.4057 51.7749 48.3007 51.8933 48.2331 52.0331C48.1655 52.1729 48.138 52.3287 48.1537 52.4832L48.32 53.6765C48.321 53.7374 48.3386 53.7969 48.371 53.8484C48.4035 53.9 48.4494 53.9416 48.5039 53.9688C48.5583 53.9961 48.6192 54.0078 48.6799 54.0028C48.7406 53.9978 48.7988 53.9763 48.848 53.9405L53.7056 51.1368C53.8371 51.0524 53.9428 50.9333 54.0108 50.7926C54.0788 50.6518 54.1066 50.4951 54.0911 50.3396Z" fill="#E6E6E6"/>
<path d="M61.5994 46.0099L61.4304 44.8166C61.4295 44.7558 61.4118 44.6963 61.3794 44.6448C61.347 44.5932 61.301 44.5515 61.2466 44.5243C61.1921 44.4971 61.1312 44.4853 61.0705 44.4903C61.0098 44.4953 60.9517 44.5169 60.9024 44.5526L56.0448 47.3616C55.914 47.4453 55.809 47.5636 55.7414 47.7034C55.6738 47.8433 55.6463 47.9991 55.662 48.1536L55.8283 49.3469C55.8283 49.4082 55.8454 49.4682 55.8776 49.5204C55.9098 49.5725 55.9559 49.6146 56.0108 49.642C56.0656 49.6694 56.1269 49.681 56.188 49.6755C56.249 49.67 56.3073 49.6476 56.3563 49.6109L61.2139 46.8072C61.3454 46.7228 61.4511 46.6036 61.5191 46.4629C61.5871 46.3222 61.6149 46.1654 61.5994 46.0099Z" fill="#E6E6E6"/>
<path d="M69.1072 41.683L68.9382 40.487C68.9373 40.4262 68.9196 40.3667 68.8872 40.3152C68.8548 40.2636 68.8089 40.222 68.7544 40.1947C68.6999 40.1675 68.639 40.1557 68.5783 40.1607C68.5177 40.1657 68.4595 40.1873 68.4102 40.223L63.5526 43.032C63.4218 43.1157 63.3168 43.234 63.2492 43.3739C63.1816 43.5137 63.1541 43.6695 63.1698 43.824L63.3361 45.0173C63.3361 45.0786 63.3532 45.1387 63.3854 45.1908C63.4176 45.2429 63.4637 45.285 63.5186 45.3124C63.5734 45.3399 63.6347 45.3515 63.6958 45.346C63.7568 45.3405 63.8151 45.3181 63.8641 45.2813L68.7217 42.4803C68.8528 42.3954 68.9581 42.2762 69.0261 42.1356C69.094 41.995 69.1221 41.8384 69.1072 41.683Z" fill="#E6E6E6"/>
<path d="M76.6153 37.3534L76.4464 36.1575C76.4454 36.0966 76.4278 36.0371 76.3954 35.9856C76.3629 35.934 76.317 35.8924 76.2625 35.8651C76.2081 35.8379 76.1472 35.8261 76.0865 35.8311C76.0258 35.8361 75.9677 35.8577 75.9184 35.8935L71.0608 38.7024C70.9302 38.7863 70.8253 38.9047 70.7578 39.0445C70.6902 39.1842 70.6626 39.34 70.678 39.4944L70.8443 40.6877C70.8443 40.749 70.8614 40.8091 70.8936 40.8612C70.9258 40.9133 70.9719 40.9555 71.0267 40.9829C71.0815 41.0103 71.1429 41.0219 71.2039 41.0164C71.265 41.0109 71.3233 40.9885 71.3723 40.9517L76.2299 38.1507C76.361 38.0658 76.4663 37.9466 76.5342 37.806C76.6022 37.6654 76.6302 37.5088 76.6153 37.3534Z" fill="#E6E6E6"/>
<path d="M84.1236 33.0238L83.9547 31.8305C83.9547 31.7692 83.9376 31.7091 83.9054 31.657C83.8732 31.6049 83.8271 31.5627 83.7723 31.5353C83.7174 31.5079 83.6561 31.4963 83.595 31.5018C83.534 31.5073 83.4757 31.5297 83.4267 31.5665L78.5691 34.3728C78.4385 34.4567 78.3336 34.5751 78.2661 34.7149C78.1985 34.8546 78.1709 35.0103 78.1863 35.1648L78.3526 36.3607C78.3535 36.4216 78.3712 36.4811 78.4036 36.5326C78.436 36.5842 78.482 36.6258 78.5364 36.6531C78.5909 36.6803 78.6518 36.692 78.7125 36.687C78.7732 36.6821 78.8313 36.6605 78.8806 36.6247L83.7382 33.821C83.8695 33.7364 83.9749 33.6172 84.0429 33.4766C84.1109 33.3359 84.1388 33.1792 84.1236 33.0238Z" fill="#E6E6E6"/>
<path d="M91.6289 28.6942L91.4626 27.5009C91.4626 27.4396 91.4455 27.3795 91.4133 27.3274C91.3811 27.2753 91.335 27.2331 91.2802 27.2057C91.2254 27.1783 91.164 27.1667 91.103 27.1722C91.0419 27.1777 90.9836 27.2001 90.9346 27.2369L86.0796 30.0406C85.9486 30.1241 85.8434 30.2423 85.7758 30.3822C85.7082 30.5221 85.6808 30.678 85.6968 30.8326L85.8632 32.0259C85.8641 32.0867 85.8817 32.1462 85.9142 32.1977C85.9466 32.2493 85.9925 32.291 86.047 32.3182C86.1015 32.3454 86.1623 32.3572 86.223 32.3522C86.2837 32.3472 86.3419 32.3256 86.3912 32.2899L91.2488 29.4862C91.3789 29.4019 91.4832 29.2834 91.5503 29.1437C91.6174 29.0039 91.6446 28.8484 91.6289 28.6942Z" fill="#E6E6E6"/>
<path opacity="0.2" d="M40.92 47.6203C40.8961 47.2715 40.9681 46.9228 41.1282 46.612C41.2883 46.3011 41.5303 46.04 41.8282 45.8568C42.4195 45.5163 42.9713 45.7512 43.0637 46.3848C43.0882 46.734 43.0162 47.0832 42.8555 47.3943C42.6949 47.7053 42.4518 47.9662 42.1529 48.1483C41.5642 48.4889 41.0124 48.2539 40.92 47.6203Z" fill="black"/>
<path opacity="0.2" d="M48.4363 43.296C48.4119 42.9471 48.4836 42.5982 48.6437 42.2872C48.8039 41.9763 49.0462 41.7152 49.3445 41.5325C49.9358 41.1893 50.4876 41.4243 50.58 42.0605C50.6043 42.4093 50.5322 42.7581 50.3715 43.0687C50.2109 43.3793 49.9679 43.6397 49.6692 43.8214C49.0778 44.1514 48.5261 43.9164 48.4363 43.296Z" fill="black"/>
<path opacity="0.2" d="M55.9363 38.9532C55.9119 38.6043 55.9836 38.2554 56.1437 37.9444C56.3039 37.6335 56.5462 37.3724 56.8445 37.1897C57.4358 36.8465 57.9902 37.0814 58.08 37.7177C58.1043 38.0662 58.0324 38.4147 57.8723 38.7252C57.7122 39.0357 57.4699 39.2963 57.1718 39.4786C56.5805 39.8191 56.0261 39.5842 55.9363 38.9532Z" fill="black"/>
<path opacity="0.2" d="M70.9476 30.2861C70.9231 29.9372 70.9948 29.5883 71.155 29.2773C71.3151 28.9664 71.5575 28.7053 71.8557 28.5226C72.4471 28.182 72.9988 28.417 73.0886 29.0506C73.1143 29.3997 73.043 29.749 72.8828 30.0602C72.7226 30.3714 72.4795 30.6323 72.1804 30.8141C71.5891 31.152 71.0373 30.9197 70.9476 30.2861Z" fill="black"/>
<path opacity="0.2" d="M78.461 25.9512C78.4359 25.6022 78.5074 25.2531 78.6675 24.942C78.8277 24.6309 79.0705 24.37 79.3691 24.1877C79.9605 23.8445 80.5122 24.0794 80.6046 24.7157C80.6291 25.0649 80.5571 25.4141 80.3965 25.7251C80.2359 26.0362 79.9928 26.297 79.6938 26.4792C79.1025 26.8171 78.5507 26.5822 78.461 25.9512Z" fill="black"/>
<path opacity="0.2" d="M85.9612 21.619C85.9368 21.2701 86.0085 20.9211 86.1686 20.6102C86.3288 20.2992 86.5711 20.0382 86.8694 19.8555C87.4607 19.5123 88.0152 19.7472 88.1049 20.3835C88.1292 20.732 88.0573 21.0805 87.8972 21.391C87.7371 21.7015 87.4948 21.962 87.1968 22.1443C86.5922 22.4849 86.0642 22.2499 85.9612 21.619Z" fill="black"/>
<path d="M40.1437 40.4871C39.3517 40.0251 38.5755 39.9591 37.9842 40.2996C37.3928 40.6402 37.0654 41.3372 37.0654 42.2638C37.0706 42.6972 37.1345 43.128 37.2555 43.5442L37.7254 43.2802C37.6411 42.9497 37.5967 42.6102 37.5934 42.2691C37.5934 41.5404 37.8258 41.0045 38.2482 40.7616C38.4215 40.6649 38.6173 40.6157 38.8158 40.6191C39.1902 40.6369 39.5538 40.7506 39.8718 40.9491C41.2762 41.7622 42.4193 43.7422 42.4193 45.3632C42.4201 45.4787 42.414 45.5942 42.4009 45.709C42.3944 45.9389 42.3336 46.164 42.2235 46.3659C42.1134 46.5677 41.957 46.7407 41.7673 46.8706C41.5252 47.0013 41.246 47.046 40.9753 46.9973C40.922 47.168 40.8996 47.3468 40.9093 47.5253C41.0079 47.541 41.1077 47.5489 41.2076 47.5491C41.4983 47.5527 41.7847 47.4779 42.0366 47.3326C42.2722 47.1848 42.472 46.9863 42.6214 46.7516C42.7707 46.5168 42.8658 46.2518 42.8998 45.9756C42.9354 45.7752 42.9531 45.572 42.9526 45.3684C42.9553 43.56 41.6934 41.382 40.1437 40.4871Z" fill="#F5F5F5"/>
<path d="M47.6573 36.1522C46.8653 35.6902 46.0892 35.6242 45.4978 35.9647C44.9065 36.3053 44.5791 37.0023 44.5791 37.9289C44.5843 38.3623 44.6482 38.7931 44.7692 39.2093L45.2391 38.9453C45.1547 38.6148 45.1104 38.2753 45.1071 37.9342C45.1071 37.2055 45.3394 36.6696 45.7618 36.4267C45.9351 36.33 46.131 36.2808 46.3294 36.2842C46.7039 36.302 47.0674 36.4157 47.3854 36.6142C48.7899 37.4273 49.933 39.4073 49.933 41.0283C49.9338 41.1438 49.9276 41.2593 49.9145 41.3741C49.9081 41.604 49.8473 41.8291 49.7372 42.031C49.6271 42.2328 49.4707 42.4058 49.2809 42.5357C49.0389 42.6664 48.7597 42.7111 48.4889 42.6624C48.4356 42.8331 48.4133 43.0119 48.4229 43.1904C48.5216 43.2061 48.6214 43.214 48.7213 43.2142C49.012 43.2178 49.2984 43.143 49.5502 42.9977C49.7859 42.8499 49.9857 42.6514 50.135 42.4167C50.2844 42.1819 50.3795 41.9169 50.4135 41.6407C50.4491 41.4403 50.4667 41.2371 50.4663 41.0335C50.4689 39.2331 49.207 37.0471 47.6573 36.1522Z" fill="#F5F5F5"/>
<path d="M55.1573 31.8199C54.3653 31.3579 53.5892 31.2919 52.9978 31.6325C52.4065 31.973 52.0791 32.67 52.0791 33.5966C52.0843 34.0301 52.1482 34.4608 52.2692 34.877L52.7391 34.613C52.6547 34.2825 52.6104 33.943 52.6071 33.6019C52.6071 32.8733 52.8394 32.3373 53.2618 32.0945C53.4351 31.9977 53.631 31.9485 53.8294 31.9519C54.2039 31.9698 54.5674 32.0834 54.8854 32.2819C56.2899 33.095 57.433 35.075 57.433 36.696C57.4338 36.8115 57.4276 36.927 57.4145 37.0418C57.4081 37.2717 57.3473 37.4968 57.2372 37.6987C57.1271 37.9006 56.9707 38.0735 56.7809 38.2034C56.5389 38.3341 56.2597 38.3788 55.9889 38.3301C55.9356 38.5008 55.9133 38.6796 55.9229 38.8581C56.0216 38.8738 56.1214 38.8818 56.2213 38.8819C56.512 38.8855 56.7984 38.8107 57.0502 38.6654C57.2859 38.5176 57.4857 38.3191 57.635 38.0844C57.7844 37.8497 57.8795 37.5846 57.9135 37.3085C57.9491 37.108 57.9667 36.9048 57.9663 36.7013C57.9689 34.9008 56.707 32.7149 55.1573 31.8199Z" fill="#F5F5F5"/>
<path d="M70.171 23.166C69.379 22.704 68.6029 22.638 68.0115 22.9786C67.4201 23.3192 67.0928 24.0161 67.0928 24.9428C67.0979 25.3762 67.1619 25.8069 67.2829 26.2232L67.7528 25.9592C67.6684 25.6286 67.6241 25.2891 67.6208 24.948C67.6208 24.2194 67.8531 23.6835 68.2755 23.4406C68.4488 23.3438 68.6446 23.2946 68.8431 23.298C69.2175 23.3159 69.5811 23.4295 69.8991 23.628C71.3036 24.4412 72.4467 26.4212 72.4467 28.0421C72.4475 28.1577 72.4413 28.2731 72.4282 28.388C72.4218 28.6178 72.361 28.8429 72.2508 29.0448C72.1407 29.2467 71.9844 29.4197 71.7946 29.5496C71.5526 29.6803 71.2733 29.725 71.0026 29.6763C70.9493 29.8469 70.927 30.0257 70.9366 30.2043C71.0353 30.2199 71.135 30.2279 71.2349 30.228C71.5257 30.2317 71.812 30.1569 72.0639 30.0116C72.2996 29.8637 72.4994 29.6653 72.6487 29.4305C72.798 29.1958 72.8932 28.9307 72.9272 28.6546C72.9627 28.4542 72.9804 28.251 72.98 28.0474C72.9826 26.2469 71.7207 24.061 70.171 23.166Z" fill="#F5F5F5"/>
<path d="M77.6847 18.8285C76.8927 18.3665 76.1165 18.3005 75.5252 18.6411C74.9338 18.9816 74.6064 19.6786 74.6064 20.6052C74.6116 21.0387 74.6755 21.4694 74.7965 21.8856L75.2664 21.6216C75.1821 21.2911 75.1378 20.9516 75.1344 20.6105C75.1344 19.8819 75.3668 19.3459 75.7892 19.1031C75.9625 19.0063 76.1583 18.9571 76.3568 18.9605C76.7312 18.9784 77.0948 19.092 77.4128 19.2905C78.8172 20.1036 79.9604 22.0836 79.9604 23.7046C79.9611 23.8201 79.955 23.9356 79.9419 24.0504C79.9354 24.2803 79.8746 24.5054 79.7645 24.7073C79.6544 24.9092 79.4981 25.0821 79.3083 25.212C79.0663 25.3427 78.787 25.3874 78.5163 25.3387C78.463 25.5094 78.4406 25.6882 78.4503 25.8667C78.549 25.8824 78.6487 25.8904 78.7486 25.8905C79.0394 25.8941 79.3257 25.8194 79.5776 25.674C79.8133 25.5262 80.013 25.3277 80.1624 25.093C80.3117 24.8583 80.4068 24.5932 80.4408 24.3171C80.4764 24.1166 80.4941 23.9134 80.4936 23.7099C80.4963 21.912 79.2344 19.7235 77.6847 18.8285Z" fill="#F5F5F5"/>
<path d="M85.1849 14.4962C84.3929 14.0342 83.6167 13.9682 83.0254 14.3088C82.434 14.6494 82.104 15.3463 82.104 16.273C82.1092 16.7064 82.1731 17.1371 82.2941 17.5534L82.764 17.2894C82.6796 16.9588 82.6353 16.6193 82.632 16.2782C82.632 15.5496 82.8643 15.0137 83.2867 14.7708C83.46 14.674 83.6559 14.6248 83.8543 14.6282C84.2288 14.6461 84.5923 14.7597 84.9103 14.9582C86.3148 15.7714 87.4579 17.7514 87.4579 19.3723C87.4587 19.4879 87.4525 19.6033 87.4394 19.7182C87.433 19.948 87.3722 20.1731 87.2621 20.375C87.152 20.5769 86.9956 20.7499 86.8058 20.8798C86.5638 21.0105 86.2846 21.0552 86.0138 21.0065C85.9605 21.1771 85.9382 21.3559 85.9478 21.5345C86.0465 21.5501 86.1463 21.5581 86.2462 21.5582C86.5369 21.5619 86.8233 21.4871 87.0751 21.3418C87.3108 21.1939 87.5106 20.9955 87.6599 20.7607C87.8093 20.526 87.9044 20.2609 87.9384 19.9848C87.974 19.7844 87.9916 19.5812 87.9912 19.3776C87.9965 17.5771 86.7346 15.3912 85.1849 14.4962Z" fill="#F5F5F5"/>
<path d="M92.9861 83.16L91.2121 86.2409C91.0955 86.4334 91.0602 86.6644 91.1139 86.883C91.1676 87.1016 91.3059 87.2898 91.4985 87.4064C91.691 87.523 91.922 87.5583 92.1406 87.5046C92.3592 87.4509 92.5475 87.3125 92.6641 87.12L94.4487 84.0206C94.6203 83.7249 94.4355 83.2946 94.0342 83.0623C93.6329 82.83 93.1577 82.8722 92.9861 83.16Z" fill="#455A64"/>
<path d="M107.105 77.7348L110.186 79.5089C110.28 79.5675 110.386 79.6067 110.496 79.6242C110.606 79.6417 110.718 79.6371 110.826 79.6107C110.935 79.5843 111.037 79.5367 111.126 79.4705C111.216 79.4044 111.291 79.3211 111.348 79.2254C111.406 79.1298 111.443 79.0238 111.459 78.9135C111.474 78.8032 111.468 78.6909 111.44 78.5832C111.412 78.4754 111.363 78.3743 111.295 78.2858C111.227 78.1972 111.143 78.123 111.046 78.0674L107.947 76.296C107.651 76.1244 107.221 76.3092 106.989 76.7105C106.756 77.1118 106.809 77.5632 107.105 77.7348Z" fill="#455A64"/>
<path d="M110.518 63.8457H110.502L102.997 59.5135H102.976C101.328 58.5763 99.0578 58.7215 96.5524 60.1629C91.518 63.0669 87.4365 70.1395 87.4365 75.9528C87.4365 78.8568 88.4529 80.8869 90.0924 81.8426H90.1056L97.6111 86.1775H97.6296C99.2769 87.12 101.55 86.9695 104.058 85.5307C109.09 82.6267 113.171 75.5541 113.171 69.7435C113.171 66.8395 112.157 64.8014 110.518 63.8457Z" fill="#7DB834"/>
<path opacity="0.1" d="M97.4897 86.0904L90.0977 81.8294H90.0819C88.4425 80.8711 87.4287 78.833 87.4287 75.9396C87.4287 73.3471 88.2418 70.5065 89.5856 67.8981L97.0911 72.2304C95.7447 74.8387 94.9342 77.6793 94.9342 80.2718C94.9395 83.0966 95.911 85.1083 97.4897 86.0904Z" fill="black"/>
<path opacity="0.4" d="M110.503 78.7189C114.063 72.5531 114.063 65.8888 110.503 63.8337C106.944 61.7786 101.172 65.111 97.6126 71.2767C94.0528 77.4424 94.0526 84.1067 97.6121 86.1618C101.172 88.2169 106.943 84.8846 110.503 78.7189Z" fill="white"/>
<path d="M99.9844 84.9209C97.1016 84.9209 96.79 81.6631 96.79 80.2613C96.79 75.1344 100.541 68.6453 104.974 66.0739C106.104 65.4218 107.192 65.0786 108.121 65.0786C111.004 65.0786 111.315 68.3364 111.315 69.7382C111.315 74.8651 107.564 81.3542 103.131 83.9256C101.999 84.5777 100.911 84.9209 99.9844 84.9209Z" fill="#FAFAFA"/>
<path d="M102.036 80.9398C102.022 80.9423 102.007 80.9423 101.993 80.9398C101.961 80.9278 101.934 80.9034 101.918 80.8719C101.903 80.8403 101.901 80.8041 101.912 80.7708L103.931 75.0024C103.943 74.9691 103.967 74.9418 103.999 74.9265C104.03 74.9111 104.067 74.909 104.1 74.9206C104.133 74.9321 104.161 74.9564 104.176 74.9881C104.191 75.0198 104.194 75.0563 104.182 75.0895L102.168 80.85C102.159 80.8776 102.141 80.9014 102.117 80.9177C102.093 80.9339 102.065 80.9417 102.036 80.9398Z" fill="#7DB834"/>
<path d="M107.084 76.7421C107.03 76.7431 106.977 76.7323 106.928 76.7105L103.662 75.2981V69.3739C103.662 69.2689 103.704 69.1682 103.778 69.0939C103.852 69.0196 103.953 68.9779 104.058 68.9779C104.163 68.9779 104.264 69.0196 104.338 69.0939C104.412 69.1682 104.454 69.2689 104.454 69.3739V74.778L107.242 75.9845C107.325 76.0213 107.392 76.0853 107.433 76.1659C107.474 76.2464 107.487 76.3386 107.468 76.4272C107.45 76.5157 107.402 76.5953 107.332 76.6526C107.262 76.7099 107.174 76.7415 107.084 76.7421Z" fill="#37474F"/>
<path d="M104.058 73.7616C104.649 73.4184 105.13 73.6956 105.13 74.3794C105.108 74.7497 104.999 75.1097 104.813 75.4306C104.627 75.7515 104.368 76.0244 104.058 76.2274C103.464 76.5706 102.983 76.2934 102.983 75.607C103.006 75.2369 103.115 74.8772 103.302 74.5568C103.488 74.2363 103.747 73.964 104.058 73.7616Z" fill="#7DB834"/>
<path d="M95.3355 69.5112C94.0419 71.7473 91.6052 72.761 89.773 71.7024C88.6983 71.081 87.9144 70.0581 87.5938 68.8587C87.2732 67.6593 87.4423 66.3818 88.0637 65.307C88.6851 64.2322 89.708 63.4483 90.9073 63.1278C92.1067 62.8072 93.3843 62.9762 94.459 63.5976C96.2859 64.68 96.6238 67.2725 95.3355 69.5112Z" fill="#455A64"/>
<path d="M89.7732 71.7024C91.6054 72.7584 94.0421 71.7473 95.3357 69.5112C95.6247 69.0099 95.839 68.4692 95.9719 67.9061C95.898 68.0037 93.7438 70.7493 91.0668 69.9758C88.3423 69.1838 87.8302 67.0903 88.0651 65.3057C87.7571 65.8378 87.557 66.4254 87.4762 67.0349C87.3953 67.6444 87.4354 68.2639 87.594 68.8579C87.7526 69.4519 88.0267 70.0089 88.4006 70.4969C88.7745 70.985 89.2409 71.3946 89.7732 71.7024Z" fill="#37474F"/>
<path d="M89.0206 64.8516L87.632 64.0596C87.5373 64.001 87.4319 63.9618 87.3219 63.9443C87.2119 63.9268 87.0995 63.9314 86.9913 63.9578C86.8831 63.9842 86.7812 64.0318 86.6916 64.098C86.602 64.1641 86.5264 64.2474 86.4693 64.343C86.4122 64.4387 86.3747 64.5447 86.359 64.655C86.3433 64.7652 86.3497 64.8775 86.3778 64.9853C86.4059 65.0931 86.4552 65.1942 86.5227 65.2827C86.5903 65.3713 86.6748 65.4455 86.7713 65.501L88.1758 66.3142C88.4741 66.4858 88.9045 66.301 89.1368 65.8997C89.3691 65.4984 89.3163 65.0232 89.0206 64.8516Z" fill="#7DB834"/>
<path d="M109.734 58.1539L110.526 56.7679C110.585 56.6732 110.624 56.5678 110.641 56.4578C110.659 56.3478 110.654 56.2354 110.628 56.1272C110.602 56.019 110.554 55.9171 110.488 55.8275C110.422 55.7379 110.338 55.6623 110.243 55.6052C110.147 55.5481 110.041 55.5106 109.931 55.4949C109.82 55.4792 109.708 55.4856 109.6 55.5137C109.493 55.5418 109.392 55.5911 109.303 55.6587C109.214 55.7262 109.14 55.8107 109.085 55.9073L108.272 57.3117C108.1 57.6074 108.272 58.0378 108.686 58.2701C109.101 58.5024 109.56 58.4522 109.734 58.1539Z" fill="#7DB834"/>
<path d="M103.026 58.7268C103.334 58.1938 103.743 57.7266 104.231 57.3519C104.72 56.9771 105.277 56.7023 105.871 56.5429C106.466 56.3836 107.086 56.3429 107.696 56.4232C108.306 56.5034 108.895 56.7031 109.428 57.0108C109.961 57.3185 110.428 57.7282 110.803 58.2164C111.178 58.7047 111.452 59.2619 111.612 59.8564C111.771 60.4509 111.812 61.0709 111.732 61.6812C111.651 62.2914 111.452 62.8798 111.144 63.4128L103.026 58.7268Z" fill="#455A64"/>
<path d="M110.114 57.5098C110.378 58.0615 111.096 60.3979 110.114 60.9787C109.132 61.5595 104.597 59.6323 104.597 59.6323L111.144 63.4128C111.689 62.4636 111.885 61.3534 111.697 60.2751C111.509 59.1967 110.949 58.2183 110.114 57.5098Z" fill="#37474F"/>
</svg>
