<svg width="127" height="126" viewBox="0 0 127 126" fill="none" xmlns="http://www.w3.org/2000/svg">
<path d="M19.8731 61.7728C-4.22134 75.5748 -4.2188 97.9499 19.8731 111.752C43.965 125.554 83.0302 125.551 107.125 111.752C131.219 97.9524 131.217 75.5748 107.125 61.7728C83.0327 47.9707 43.9675 47.9732 19.8731 61.7728Z" fill="#0D355F"/>
<path d="M84.5743 24.3217V25.3801C84.5743 25.3801 84.1628 25.0072 84.14 24.74C84.1171 24.4729 84.5743 24.3217 84.5743 24.3217Z" fill="black"/>
<path d="M83.7539 24.0646C83.7076 24.2112 83.6925 24.3657 83.7095 24.5184C83.7264 24.6711 83.7751 24.8187 83.8524 24.9517C83.9298 25.0848 84.0341 25.2006 84.1588 25.2916C84.2834 25.3827 84.4258 25.4471 84.5769 25.4809C85.7402 25.8438 86.4717 25.4809 86.6444 25.8034C86.8171 26.126 81.125 29.3844 81.125 29.3844L82.207 24.7098L83.7539 24.0646Z" fill="#263238"/>
<path d="M83.1774 73.8347V73.9153L82.6084 73.5877L58.7324 59.889L58.7654 11.5403C58.7654 10.8649 59.1388 10.5323 59.596 10.7843L60.4266 11.2631L83.2714 24.3419L83.251 24.5409L83.1774 73.8347Z" fill="#37474F"/>
<path d="M78.2751 30.6822L77.0762 29.3441L83.2103 25.8312C84.1348 26.5242 84.846 26.8946 85.6741 26.5469L78.2751 30.6822Z" fill="#7DB834"/>
<path d="M82.9108 25.113L60.2845 12.1526C60.0644 12.0421 59.8212 11.9846 59.5746 11.9846C59.3279 11.9846 59.0847 12.0421 58.8646 12.1526L52.8169 15.6176L75.7607 28.6435C75.7607 28.6435 76.7513 28.3915 77.427 28.9308C78.1026 29.4701 78.0645 28.7846 78.0645 28.7846L83.2207 25.8312C82.7991 25.2793 82.9108 25.113 82.9108 25.113Z" fill="#0D355F"/>
<path d="M77.8433 30.405C77.6096 30.2714 77.5106 30.1152 77.6198 30.0522L77.8128 29.9438C78.0262 29.8203 77.8281 29.5053 77.3658 29.2407C76.9035 28.9761 76.3498 28.8577 76.1441 28.9887L75.951 29.0996C75.8418 29.1626 75.443 29.0316 75.0493 28.8098L75.189 76.0044L75.7605 76.3295C75.8721 76.3549 75.9889 76.3434 76.0933 76.2967L76.2863 76.1883C76.4997 76.0649 77.0483 76.1883 77.5055 76.4403C77.9627 76.6923 78.1659 77.0225 77.9525 77.1434L77.7595 77.2543C77.6503 77.3173 77.7595 77.471 77.983 77.6046L77.8433 30.405Z" fill="#263238"/>
<path d="M75.7606 76.2513V76.3194L75.1916 75.9918L50.7568 61.9982V16.1065C50.7568 15.4311 51.1277 15.0985 51.5874 15.3505L52.418 15.8293L75.7555 28.6309L75.7606 76.2513Z" fill="#37474F"/>
<path d="M77.5767 77.3602V30.1202L79.1007 30.7276V77.8314C78.8192 77.8884 78.527 77.8594 78.2625 77.7482L77.5767 77.3602Z" fill="#37474F"/>
<path d="M87.2568 72.988C87.2593 73.0148 87.2593 73.0418 87.2568 73.0686C87.2617 73.0868 87.2617 73.1059 87.2568 73.124C87.2455 73.1629 87.2293 73.2001 87.2086 73.2349C87.2008 73.2549 87.1914 73.2743 87.1806 73.2929C87.1438 73.359 87.0995 73.4208 87.0485 73.4768C86.9968 73.541 86.9408 73.6016 86.8809 73.6583C86.8123 73.7213 86.7412 73.7792 86.665 73.8422C86.6228 73.8792 86.5778 73.9129 86.5304 73.943L86.4186 74.0212C86.3348 74.0791 86.2434 74.1346 86.1468 74.19L80.884 77.214C80.3366 77.5327 79.7333 77.7456 79.106 77.8415V30.7276L87.2746 25.8715V72.9754L87.2568 72.988Z" fill="#455A64"/>
<path d="M79.0933 36.5563V41.6215C82.3572 40.5228 85.1588 39.0285 87.2619 36.9419V31.8792C85.1588 33.9658 82.3572 35.4576 79.0933 36.5563Z" fill="#7DB834"/>
<path opacity="0.4" d="M79.0933 36.5563V41.6215C82.3572 40.5228 85.1588 39.0285 87.2619 36.9419V31.8792C85.1588 33.9658 82.3572 35.4576 79.0933 36.5563Z" fill="white"/>
<path d="M79.0933 43.4964V45.3839C82.3572 44.2852 85.1588 42.7933 87.2619 40.7068V38.8193C85.1588 40.9033 82.3572 42.3977 79.0933 43.4964Z" fill="#7DB834"/>
<path opacity="0.4" d="M79.0933 43.4964V45.3839C82.3572 44.2852 85.1588 42.7933 87.2619 40.7068V38.8193C85.1588 40.9033 82.3572 42.3977 79.0933 43.4964Z" fill="white"/>
<path d="M87.0762 25.5893L86.7511 25.4028L86.4971 25.2541L86.3751 25.181C86.3198 25.1642 86.2614 25.16 86.2042 25.1687C86.147 25.1774 86.0926 25.1989 86.0449 25.2314L85.8163 25.3625C85.5903 25.4834 85.2144 25.4733 84.7648 25.2138C84.3152 24.9542 84.1171 24.6291 84.3482 24.4981L84.5336 24.3897L84.5667 24.3671C84.6556 24.294 84.4346 24.0672 84.0587 23.8631L78.7272 20.8088L62.0851 11.2706L61.7651 11.0967C61.7143 11.064 61.6533 11.0337 61.5873 10.9959C61.5212 10.9581 61.4298 10.9027 61.3333 10.8523C61.2368 10.8019 61.0666 10.7036 60.9294 10.623L60.6957 10.4894C60.5637 10.4189 60.4417 10.3433 60.3198 10.2752C60.2541 10.242 60.1815 10.2247 60.1077 10.2247C60.034 10.2247 59.9613 10.242 59.8956 10.2752L59.2911 10.623L59.0625 10.7515C59.1324 10.7142 59.2105 10.6947 59.2898 10.6947C59.3692 10.6947 59.4473 10.7142 59.5172 10.7515L60.5332 11.3311C60.65 11.3941 60.7669 11.4647 60.8786 11.5277L62.08 12.2156L83.0376 24.2184L83.1849 24.299L83.256 24.3419C83.2073 24.6014 83.2542 24.8697 83.3881 25.0979C83.5771 25.3938 83.8395 25.6368 84.1501 25.8035C84.686 26.1159 85.5039 26.3629 86.1059 26.1033C86.1009 26.1045 86.0957 26.1045 86.0907 26.1033L85.923 26.2218C85.8544 26.2671 85.7808 26.3125 85.7071 26.3553L80.4442 29.3793C79.9144 29.7022 79.3124 29.8901 78.6916 29.9262C78.7228 29.6872 78.6717 29.4449 78.5469 29.2382C78.3503 28.9362 78.0793 28.689 77.7595 28.52C77.3927 28.3058 76.9855 28.1686 76.5631 28.1168C76.5352 28.1168 76.5022 28.1168 76.4742 28.1168C76.2231 28.0923 75.9702 28.1395 75.7452 28.2529L54.0892 15.852L53.3526 15.4311L52.4153 14.8919C52.3413 14.8421 52.2553 14.8127 52.1661 14.8065C52.0769 14.8003 51.9877 14.8176 51.9073 14.8566L51.0742 15.3329C51.1541 15.2931 51.2431 15.275 51.3323 15.2803C51.4215 15.2856 51.5077 15.3142 51.5822 15.3631H51.5975L54.079 16.7869L75.0467 28.8073C75.4379 29.0316 75.8418 29.1651 75.9535 29.1021L76.144 28.9938C76.2817 28.9369 76.4345 28.9271 76.5784 28.9661C76.8557 29.0127 77.1224 29.1083 77.3658 29.2483C77.828 29.5154 78.0236 29.8304 77.8103 29.9514L77.6198 30.0623C77.5105 30.1253 77.6198 30.279 77.8433 30.4125L78.2598 30.6494C78.717 30.9014 79.888 30.6696 80.8684 30.1076L86.1313 27.0836C86.2278 27.0282 86.3167 26.9727 86.4031 26.9148L86.5148 26.8367C86.5618 26.8059 86.6068 26.7722 86.6495 26.7359C86.7257 26.6729 86.7968 26.6149 86.8654 26.5519C86.9246 26.4946 86.9806 26.434 87.033 26.3705C87.0832 26.3137 87.1274 26.2521 87.1651 26.1865C87.1753 26.1692 87.183 26.1505 87.1879 26.1311C87.2098 26.0968 87.226 26.0594 87.2362 26.0202C87.2409 26.002 87.2409 25.9829 87.2362 25.9647C87.2557 25.8934 87.2506 25.8176 87.2216 25.7496C87.1926 25.6815 87.1414 25.625 87.0762 25.5893Z" fill="#455A64"/>
<path opacity="0.2" d="M87.0762 25.5893L86.7511 25.4028L86.4971 25.2541L86.3751 25.181C86.3198 25.1642 86.2614 25.16 86.2042 25.1687C86.147 25.1774 86.0926 25.1989 86.0449 25.2314L85.8163 25.3625C85.5903 25.4834 85.2144 25.4733 84.7648 25.2138C84.3152 24.9542 84.1171 24.6291 84.3482 24.4981L84.5336 24.3897L84.5667 24.3671C84.6556 24.294 84.4346 24.0672 84.0587 23.8631L78.7272 20.8088L62.0851 11.2706L61.7651 11.0967C61.7143 11.064 61.6533 11.0337 61.5873 10.9959C61.5212 10.9581 61.4298 10.9027 61.3333 10.8523C61.2368 10.8019 61.0666 10.7036 60.9294 10.623L60.6957 10.4894C60.5637 10.4189 60.4417 10.3433 60.3198 10.2752C60.2541 10.242 60.1815 10.2247 60.1077 10.2247C60.034 10.2247 59.9613 10.242 59.8956 10.2752L59.2911 10.623L59.0625 10.7515C59.1324 10.7142 59.2105 10.6947 59.2898 10.6947C59.3692 10.6947 59.4473 10.7142 59.5172 10.7515L60.5332 11.3311C60.65 11.3941 60.7669 11.4647 60.8786 11.5277L62.08 12.2156L83.0376 24.2184L83.1849 24.299L83.256 24.3419C83.2073 24.6014 83.2542 24.8697 83.3881 25.0979C83.5771 25.3938 83.8395 25.6368 84.1501 25.8035C84.686 26.1159 85.5039 26.3629 86.1059 26.1033C86.1009 26.1045 86.0957 26.1045 86.0907 26.1033L85.923 26.2218C85.8544 26.2671 85.7808 26.3125 85.7071 26.3553L80.4442 29.3793C79.9144 29.7022 79.3124 29.8901 78.6916 29.9262C78.7228 29.6872 78.6717 29.4449 78.5469 29.2382C78.3503 28.9362 78.0793 28.689 77.7595 28.52C77.3927 28.3058 76.9855 28.1686 76.5631 28.1168C76.5352 28.1168 76.5022 28.1168 76.4742 28.1168C76.2231 28.0923 75.9702 28.1395 75.7452 28.2529L54.0892 15.852L53.3526 15.4311L52.4153 14.8919C52.3413 14.8421 52.2553 14.8127 52.1661 14.8065C52.0769 14.8003 51.9877 14.8176 51.9073 14.8566L51.0742 15.3329C51.1541 15.2931 51.2431 15.275 51.3323 15.2803C51.4215 15.2856 51.5077 15.3142 51.5822 15.3631H51.5975L54.079 16.7869L75.0467 28.8073C75.4379 29.0316 75.8418 29.1651 75.9535 29.1021L76.144 28.9938C76.2817 28.9369 76.4345 28.9271 76.5784 28.9661C76.8557 29.0127 77.1224 29.1083 77.3658 29.2483C77.828 29.5154 78.0236 29.8304 77.8103 29.9514L77.6198 30.0623C77.5105 30.1253 77.6198 30.279 77.8433 30.4125L78.2598 30.6494C78.717 30.9014 79.888 30.6696 80.8684 30.1076L86.1313 27.0836C86.2278 27.0282 86.3167 26.9727 86.4031 26.9148L86.5148 26.8367C86.5618 26.8059 86.6068 26.7722 86.6495 26.7359C86.7257 26.6729 86.7968 26.6149 86.8654 26.5519C86.9246 26.4946 86.9806 26.434 87.033 26.3705C87.0832 26.3137 87.1274 26.2521 87.1651 26.1865C87.1753 26.1692 87.183 26.1505 87.1879 26.1311C87.2098 26.0968 87.226 26.0594 87.2362 26.0202C87.2409 26.002 87.2409 25.9829 87.2362 25.9647C87.2557 25.8934 87.2506 25.8176 87.2216 25.7496C87.1926 25.6815 87.1414 25.625 87.0762 25.5893Z" fill="white"/>
<path d="M72.4615 31.5641V32.62C72.4615 32.62 72.0501 32.2496 72.0272 31.9825C72.0043 31.7153 72.4615 31.5641 72.4615 31.5641Z" fill="black"/>
<path d="M71.6411 31.3071C71.5949 31.4536 71.5797 31.6079 71.5967 31.7604C71.6137 31.913 71.6624 32.0603 71.7398 32.1932C71.8171 32.3261 71.9215 32.4416 72.0461 32.5324C72.1708 32.6233 72.3131 32.6874 72.4641 32.7208C73.6274 33.0837 74.3589 32.7209 74.5316 33.0459C74.7043 33.371 69.0122 36.6193 69.0122 36.6193L70.0942 31.9422L71.6411 31.3071Z" fill="#7DB834"/>
<path opacity="0.3" d="M71.6411 31.3071C71.5949 31.4536 71.5797 31.6079 71.5967 31.7604C71.6137 31.913 71.6624 32.0603 71.7398 32.1932C71.8171 32.3261 71.9215 32.4416 72.0461 32.5324C72.1708 32.6233 72.3131 32.6874 72.4641 32.7208C73.6274 33.0837 74.3589 32.7209 74.5316 33.0459C74.7043 33.371 69.0122 36.6193 69.0122 36.6193L70.0942 31.9422L71.6411 31.3071Z" fill="black"/>
<path d="M71.0641 81.0771V81.1426L70.4951 80.8176L46.6191 67.1163L46.6522 18.7701C46.6522 18.0948 47.023 17.7621 47.4827 18.0141L48.3032 18.503L71.1479 31.5793L71.1276 31.7758L71.0641 81.0771Z" fill="#7DB834"/>
<path opacity="0.2" d="M71.0641 81.0771V81.1426L70.4951 80.8176L46.6191 67.1163L46.6522 18.7701C46.6522 18.0948 47.023 17.7621 47.4827 18.0141L48.3032 18.503L71.1479 31.5793L71.1276 31.7758L71.0641 81.0771Z" fill="black"/>
<path d="M66.1725 37.9247L64.9736 36.5865L71.1077 33.0737C72.0323 33.7641 72.7435 34.1346 73.5715 33.7894L66.1725 37.9247Z" fill="#455A64"/>
<path d="M65.7305 37.6449C65.4968 37.5114 65.3978 37.3576 65.507 37.2946L65.7 37.1838C65.9134 37.0628 65.7153 36.7478 65.253 36.4807C64.7907 36.2136 64.237 36.0976 64.0313 36.2287L63.8382 36.3396C63.729 36.4026 63.3302 36.2715 62.9365 36.0472L63.0762 83.2393L63.6477 83.5644C63.759 83.5905 63.8758 83.5798 63.9805 83.5341L64.1735 83.4232C64.3869 83.3023 64.9355 83.4232 65.3927 83.6752C65.8499 83.9272 66.0531 84.2548 65.8397 84.3783L65.6467 84.4867C65.5375 84.5497 65.6467 84.7059 65.8702 84.8395L65.7305 37.6449Z" fill="#7DB834"/>
<path opacity="0.25" d="M65.7305 37.6449C65.4968 37.5114 65.3978 37.3576 65.507 37.2946L65.7 37.1838C65.9134 37.0628 65.7153 36.7478 65.253 36.4807C64.7907 36.2136 64.237 36.0976 64.0313 36.2287L63.8382 36.3396C63.729 36.4026 63.3302 36.2715 62.9365 36.0472L63.0762 83.2393L63.6477 83.5644C63.759 83.5905 63.8758 83.5798 63.9805 83.5341L64.1735 83.4232C64.3869 83.3023 64.9355 83.4232 65.3927 83.6752C65.8499 83.9272 66.0531 84.2548 65.8397 84.3783L65.6467 84.4867C65.5375 84.5497 65.6467 84.7059 65.8702 84.8395L65.7305 37.6449Z" fill="white"/>
<path d="M63.6475 83.4913V83.5568L63.076 83.2393L38.6514 69.2382V23.3465C38.6514 22.6736 39.0222 22.3385 39.4819 22.6056L40.3125 23.0819L63.65 35.886L63.6475 83.4913Z" fill="#7DB834"/>
<path opacity="0.4" d="M63.6475 83.4913V83.5568L63.076 83.2393L38.6514 69.2382V23.3465C38.6514 22.6736 39.0222 22.3385 39.4819 22.6056L40.3125 23.0819L63.65 35.886L63.6475 83.4913Z" fill="white"/>
<path d="M65.4634 84.6001V37.3602L66.9874 37.9675V85.0713C66.7061 85.1276 66.4143 85.0995 66.1492 84.9907L65.4634 84.6001Z" fill="#7DB834"/>
<path opacity="0.4" d="M65.4634 84.6001V37.3602L66.9874 37.9675V85.0713C66.7061 85.1276 66.4143 85.0995 66.1492 84.9907L65.4634 84.6001Z" fill="white"/>
<path d="M75.1435 80.2304C75.1459 80.2572 75.1459 80.2842 75.1435 80.3111C75.1484 80.3284 75.1484 80.3467 75.1435 80.364C75.1316 80.4034 75.1155 80.4414 75.0953 80.4774C75.0875 80.4974 75.0782 80.5168 75.0673 80.5353C75.0311 80.6011 74.9868 80.662 74.9353 80.7168C74.8842 80.7814 74.8281 80.8421 74.7676 80.8982C74.699 80.9612 74.6279 81.0217 74.5517 81.0822C74.5091 81.1194 74.4641 81.1539 74.4171 81.1855L74.3053 81.2611C74.2178 81.3228 74.1271 81.38 74.0336 81.4324L68.7707 84.4564C68.2237 84.7756 67.6201 84.9877 66.9927 85.0814V37.9675L75.1613 33.1115V80.2153L75.1435 80.2304Z" fill="#7DB834"/>
<g opacity="0.7">
<path d="M75.1435 80.2304C75.1459 80.2572 75.1459 80.2842 75.1435 80.3111C75.1484 80.3284 75.1484 80.3467 75.1435 80.364C75.1316 80.4034 75.1155 80.4414 75.0953 80.4774C75.0875 80.4974 75.0782 80.5168 75.0673 80.5353C75.0311 80.6011 74.9868 80.662 74.9353 80.7168C74.8842 80.7814 74.8281 80.8421 74.7676 80.8982C74.699 80.9612 74.6279 81.0217 74.5517 81.0822C74.5091 81.1194 74.4641 81.1539 74.4171 81.1855L74.3053 81.2611C74.2178 81.3228 74.1271 81.38 74.0336 81.4324L68.7707 84.4564C68.2237 84.7756 67.6201 84.9877 66.9927 85.0814V37.9675L75.1613 33.1115V80.2153L75.1435 80.2304Z" fill="white"/>
</g>
<path d="M66.98 41.4476V46.5128C70.2439 45.4116 73.0455 43.9197 75.1486 41.8332V36.7705C73.0455 38.8545 70.2439 40.3489 66.98 41.4476Z" fill="#FFCB66"/>
<path d="M66.98 74.757V79.8197C70.2439 78.7209 73.0455 77.2266 75.1486 75.1425V70.0773C73.0455 72.1639 70.2439 73.6633 66.98 74.757Z" fill="#FAFAFA"/>
<path d="M68.7552 37.34L68.3463 36.6344C67.8176 36.9597 67.2149 37.1478 66.5937 37.1812C66.6246 36.9423 66.5736 36.7 66.4489 36.4933C66.2509 36.1925 65.9802 35.9456 65.6615 35.7751C65.2941 35.5628 64.8871 35.4265 64.4652 35.3744C64.4356 35.372 64.4059 35.372 64.3763 35.3744C64.1244 35.3502 63.8707 35.3974 63.6448 35.5105L41.976 23.0919L41.2394 22.6736L40.2996 22.1343C40.2258 22.0842 40.1399 22.0543 40.0507 22.0477C39.9615 22.041 39.8721 22.0579 39.7916 22.0965L38.9585 22.5728C39.0402 22.531 39.1317 22.512 39.2234 22.5178C39.3151 22.5236 39.4035 22.5539 39.4792 22.6056L41.9633 24.0319L62.9336 36.0397C63.3247 36.2614 63.7286 36.3975 63.8403 36.3345L64.0308 36.2236C64.1685 36.1667 64.3213 36.157 64.4652 36.1959C64.7422 36.2422 65.0083 36.3387 65.25 36.4807C65.7149 36.7453 65.9104 37.0603 65.6971 37.1838L65.5066 37.2921C65.3974 37.3551 65.5066 37.5114 65.7301 37.6449L66.1467 37.8793C66.6039 38.1439 67.7748 37.902 68.7552 37.34Z" fill="#7DB834"/>
<path opacity="0.6" d="M68.7552 37.34L68.3463 36.6344C67.8176 36.9597 67.2149 37.1478 66.5937 37.1812C66.6246 36.9423 66.5736 36.7 66.4489 36.4933C66.2509 36.1925 65.9802 35.9456 65.6615 35.7751C65.2941 35.5628 64.8871 35.4265 64.4652 35.3744C64.4356 35.372 64.4059 35.372 64.3763 35.3744C64.1244 35.3502 63.8707 35.3974 63.6448 35.5105L41.976 23.0919L41.2394 22.6736L40.2996 22.1343C40.2258 22.0842 40.1399 22.0543 40.0507 22.0477C39.9615 22.041 39.8721 22.0579 39.7916 22.0965L38.9585 22.5728C39.0402 22.531 39.1317 22.512 39.2234 22.5178C39.3151 22.5236 39.4035 22.5539 39.4792 22.6056L41.9633 24.0319L62.9336 36.0397C63.3247 36.2614 63.7286 36.3975 63.8403 36.3345L64.0308 36.2236C64.1685 36.1667 64.3213 36.157 64.4652 36.1959C64.7422 36.2422 65.0083 36.3387 65.25 36.4807C65.7149 36.7453 65.9104 37.0603 65.6971 37.1838L65.5066 37.2921C65.3974 37.3551 65.5066 37.5114 65.7301 37.6449L66.1467 37.8793C66.6039 38.1439 67.7748 37.902 68.7552 37.34Z" fill="white"/>
<path d="M68.3465 36.6344L73.6068 33.6104C73.683 33.5676 73.7541 33.5222 73.8252 33.4769L73.9929 33.3584C73.9986 33.354 74.0037 33.3489 74.0081 33.3433C73.4061 33.5953 72.5883 33.3559 72.0523 33.0434C71.7412 32.8775 71.4786 32.6344 71.2903 32.3378C71.1559 32.1098 71.109 31.8414 71.1582 31.5818L71.0871 31.539L70.9398 31.4583L49.9721 19.4581L48.7707 18.7676L48.4252 18.5711L47.4092 17.9915C47.3392 17.9548 47.2611 17.9357 47.1819 17.9357C47.1027 17.9357 47.0247 17.9548 46.9546 17.9915L47.1832 17.8604L47.7953 17.5177C47.8611 17.4833 47.9343 17.4653 48.0087 17.4653C48.083 17.4653 48.1563 17.4833 48.222 17.5177C48.3414 17.5857 48.4761 17.6588 48.598 17.7294L48.8316 17.8629C48.9688 17.9436 49.1085 18.0217 49.2355 18.0923C49.3625 18.1628 49.4108 18.1905 49.4895 18.2359L49.6673 18.3367L49.9772 18.5131L66.6142 28.0513L71.9253 31.0929C72.3038 31.3097 72.5273 31.5339 72.4333 31.6095C72.4237 31.6177 72.4135 31.6253 72.4028 31.6322L72.2174 31.7381C71.9863 31.8716 72.1717 32.1917 72.634 32.4537C73.0963 32.7158 73.4569 32.7234 73.6855 32.6024L73.9141 32.4714C73.9621 32.4396 74.0167 32.4188 74.0738 32.4105C74.1309 32.4022 74.1892 32.4066 74.2443 32.4235C74.2799 32.4411 74.3231 32.4689 74.3663 32.4941L74.6203 32.6453L74.9733 32.8393C75.041 32.873 75.0951 32.9285 75.127 32.9967C75.1588 33.0649 75.1664 33.1417 75.1486 33.2148C75.1532 33.2321 75.1532 33.2503 75.1486 33.2677C75.1384 33.3077 75.1222 33.346 75.1003 33.3811C75.0951 33.4009 75.0865 33.4196 75.0749 33.4365C75.039 33.5018 74.9955 33.5627 74.9454 33.618C74.8927 33.6821 74.8359 33.7427 74.7752 33.7994C74.7092 33.8624 74.638 33.9229 74.5618 33.9859C74.4856 34.0489 74.4729 34.0539 74.4272 34.0867L74.3155 34.1648C74.2291 34.2203 74.1402 34.2782 74.0437 34.3337L68.7808 37.3577L68.3465 36.6344Z" fill="#7DB834"/>
<path opacity="0.6" d="M68.3465 36.6344L73.6068 33.6104C73.683 33.5676 73.7541 33.5222 73.8252 33.4769L73.9929 33.3584C73.9986 33.354 74.0037 33.3489 74.0081 33.3433C73.4061 33.5953 72.5883 33.3559 72.0523 33.0434C71.7412 32.8775 71.4786 32.6344 71.2903 32.3378C71.1559 32.1098 71.109 31.8414 71.1582 31.5818L71.0871 31.539L70.9398 31.4583L49.9721 19.4581L48.7707 18.7676L48.4252 18.5711L47.4092 17.9915C47.3392 17.9548 47.2611 17.9357 47.1819 17.9357C47.1027 17.9357 47.0247 17.9548 46.9546 17.9915L47.1832 17.8604L47.7953 17.5177C47.8611 17.4833 47.9343 17.4653 48.0087 17.4653C48.083 17.4653 48.1563 17.4833 48.222 17.5177C48.3414 17.5857 48.4761 17.6588 48.598 17.7294L48.8316 17.8629C48.9688 17.9436 49.1085 18.0217 49.2355 18.0923C49.3625 18.1628 49.4108 18.1905 49.4895 18.2359L49.6673 18.3367L49.9772 18.5131L66.6142 28.0513L71.9253 31.0929C72.3038 31.3097 72.5273 31.5339 72.4333 31.6095C72.4237 31.6177 72.4135 31.6253 72.4028 31.6322L72.2174 31.7381C71.9863 31.8716 72.1717 32.1917 72.634 32.4537C73.0963 32.7158 73.4569 32.7234 73.6855 32.6024L73.9141 32.4714C73.9621 32.4396 74.0167 32.4188 74.0738 32.4105C74.1309 32.4022 74.1892 32.4066 74.2443 32.4235C74.2799 32.4411 74.3231 32.4689 74.3663 32.4941L74.6203 32.6453L74.9733 32.8393C75.041 32.873 75.0951 32.9285 75.127 32.9967C75.1588 33.0649 75.1664 33.1417 75.1486 33.2148C75.1532 33.2321 75.1532 33.2503 75.1486 33.2677C75.1384 33.3077 75.1222 33.346 75.1003 33.3811C75.0951 33.4009 75.0865 33.4196 75.0749 33.4365C75.039 33.5018 74.9955 33.5627 74.9454 33.618C74.8927 33.6821 74.8359 33.7427 74.7752 33.7994C74.7092 33.8624 74.638 33.9229 74.5618 33.9859C74.4856 34.0489 74.4729 34.0539 74.4272 34.0867L74.3155 34.1648C74.2291 34.2203 74.1402 34.2782 74.0437 34.3337L68.7808 37.3577L68.3465 36.6344Z" fill="white"/>
<path d="M62.5401 97.02C62.5415 97.0117 62.5415 97.0031 62.5401 96.9948C62.5413 96.9864 62.5413 96.978 62.5401 96.9696C62.5435 96.9589 62.5435 96.9475 62.5401 96.9368C62.5373 96.9243 62.5321 96.9123 62.5249 96.9016C62.4974 96.8447 62.4542 96.7966 62.4004 96.763H62.3826L62.3598 96.7478L45.4662 87.0458L45.4307 87.0282C45.1319 86.8648 44.7937 86.7855 44.4528 86.7989H44.435C44.1426 86.8159 43.8587 86.9023 43.607 87.0509L42.3801 87.7514L21.0975 99.9331L18.3873 101.485C18.3119 101.543 18.2501 101.616 18.2062 101.699C18.1623 101.783 18.1374 101.875 18.1333 101.969V103.459C18.133 103.575 18.1636 103.689 18.2221 103.789C18.2805 103.89 18.3647 103.973 18.466 104.031L18.72 104.184L35.2605 113.652C35.4179 113.731 35.592 113.773 35.7685 113.773C35.9451 113.773 36.1191 113.731 36.2765 113.652L59.0273 100.621L62.3293 98.7311L62.3598 98.7109L62.3801 98.6983C62.4244 98.6713 62.4619 98.6345 62.4896 98.5908C62.5174 98.5471 62.5346 98.4977 62.5401 98.4463C62.5401 98.4337 62.5325 97.1006 62.5401 97.02Z" fill="#7DB834"/>
<path opacity="0.25" d="M35.4637 113.743H35.4992C35.5428 113.753 35.5869 113.76 35.6313 113.765H35.7304H35.7685V112.319C35.5915 112.322 35.4168 112.28 35.2605 112.198L18.4609 102.589C18.3532 102.529 18.2647 102.441 18.2054 102.333C18.1461 102.226 18.1185 102.104 18.1256 101.982V103.466C18.1253 103.582 18.1559 103.696 18.2144 103.797C18.2728 103.897 18.357 103.98 18.4584 104.038L18.7124 104.192L35.2605 113.652C35.2975 113.672 35.3357 113.691 35.3748 113.707L35.4637 113.743Z" fill="#35365D"/>
<path opacity="0.15" d="M62.5399 98.4589C62.5344 98.5102 62.5171 98.5597 62.4894 98.6033C62.4616 98.647 62.4242 98.6838 62.3798 98.7109L62.3595 98.7235L62.329 98.7437L36.2788 113.652C36.1292 113.73 35.9627 113.771 35.7937 113.77H35.7759V112.324C35.9523 112.325 36.1265 112.285 36.2839 112.206L62.3595 97.272L62.3798 97.2594C62.4242 97.2323 62.4616 97.1955 62.4894 97.1518C62.5171 97.1081 62.5344 97.0587 62.5399 97.0074C62.5322 97.1006 62.5399 98.4337 62.5399 98.4589Z" fill="#35365D"/>
<path opacity="0.65" d="M62.5404 97.0201C62.5349 97.0714 62.5177 97.1209 62.4899 97.1646C62.4622 97.2082 62.4247 97.245 62.3804 97.2721L62.3601 97.2847L59.0276 99.1949L45.2481 107.088L36.2793 112.216C36.1298 112.294 35.9632 112.334 35.7942 112.334C35.6105 112.34 35.4283 112.299 35.2659 112.213L34.9789 112.049L22.0985 104.676L18.7254 102.743L18.4714 102.592C18.3664 102.532 18.2799 102.444 18.2212 102.339C18.1626 102.234 18.134 102.115 18.1387 101.995V101.977C18.1428 101.883 18.1677 101.791 18.2116 101.707C18.2555 101.623 18.3173 101.55 18.3927 101.493L21.1028 99.9408L42.3779 87.7541L43.6047 87.0535C43.8564 86.9049 44.1404 86.8185 44.4327 86.8015H44.4505C44.7915 86.7881 45.1296 86.8674 45.4284 87.0308L45.464 87.0485L62.3321 96.7127L62.355 96.7278H62.3728C62.4266 96.7614 62.4697 96.8095 62.4972 96.8664C62.5044 96.8771 62.5096 96.8891 62.5125 96.9017C62.5158 96.9123 62.5158 96.9238 62.5125 96.9344C62.5146 96.9427 62.5146 96.9514 62.5125 96.9596C62.5213 96.967 62.5284 96.9763 62.5332 96.9868C62.5381 96.9972 62.5405 97.0086 62.5404 97.0201Z" fill="#F8F4F4"/>
<path d="M29.586 103.469C28.4379 104.126 26.4237 104.043 25.0978 103.282C23.7719 102.521 23.6271 101.369 24.7752 100.712C25.9233 100.054 27.9375 100.137 29.2634 100.898C30.5893 101.659 30.734 102.816 29.586 103.469ZM24.9505 100.813C23.8862 101.422 24.0208 102.491 25.2502 103.197C26.4795 103.902 28.3464 103.978 29.4107 103.368C30.475 102.758 30.3429 101.69 29.111 100.984C27.8791 100.278 26.0147 100.203 24.9505 100.813Z" fill="#35365D"/>
<path d="M29.2278 103.262H29.1846C26.9875 103.746 24.7675 102.365 24.7447 102.35L24.7091 102.327V102.312C24.6888 101.868 24.9479 101.528 25.5727 101.17C26.1731 100.814 26.865 100.639 27.5641 100.666H27.6149L27.6555 100.687C27.6809 100.699 30.0939 101.972 29.2456 103.232L29.2278 103.262ZM24.953 102.297C25.24 102.466 27.1501 103.539 29.017 103.146C29.7028 102.073 27.8282 100.979 27.5336 100.815C26.9094 100.8 26.2933 100.959 25.7556 101.274C25.1892 101.599 24.9479 101.906 24.953 102.297Z" fill="#35365D"/>
<path d="M26.0608 101.642L26.3148 101.788L26.165 101.924L27.2572 102.549C27.3796 102.624 27.5196 102.667 27.6636 102.672C27.7926 102.675 27.92 102.643 28.0319 102.579C28.1462 102.514 28.202 102.443 28.197 102.367C28.1919 102.292 28.1233 102.214 27.9836 102.133L26.8914 101.508L26.6552 101.594L26.4012 101.448L27.1632 101.017L27.4172 101.163L27.2673 101.299L28.3595 101.924C28.5957 102.06 28.71 102.201 28.7024 102.352C28.6948 102.504 28.5856 102.64 28.3671 102.763C28.1451 102.89 27.8933 102.957 27.6369 102.957C27.3805 102.957 27.1287 102.89 26.9066 102.763L25.8144 102.136L25.5782 102.221L25.3242 102.078L25.5173 101.967L25.8805 101.758L26.0608 101.642Z" fill="#35365D"/>
<path d="M30.1677 103.897L29.9671 103.988L29.4565 103.857L29.6572 103.764L30.1677 103.897Z" fill="#35365D"/>
<path d="M30.1679 103.897L29.9673 103.988L30.1044 104.293L30.3051 104.202L30.1679 103.897Z" fill="#35365D"/>
<path d="M29.6548 104.126L29.4288 104.189L28.9614 104.01L29.19 103.947L29.6548 104.126Z" fill="#35365D"/>
<path d="M29.6548 104.126L29.4287 104.189L29.4643 104.492L29.6929 104.426L29.6548 104.126Z" fill="#35365D"/>
<path d="M29.0782 104.28L28.8293 104.318L28.4229 104.099L28.6718 104.061L29.0782 104.28Z" fill="#35365D"/>
<path d="M29.0783 104.28L28.8294 104.318L28.771 104.605L29.0174 104.567L29.0783 104.28Z" fill="#35365D"/>
<path d="M28.4254 104.373L28.1689 104.383L27.8311 104.136L28.0876 104.126L28.4254 104.373Z" fill="#35365D"/>
<path d="M28.4253 104.373L28.1688 104.383L28.0215 104.651L28.278 104.64L28.4253 104.373Z" fill="#35365D"/>
<path d="M27.7395 104.399L27.4805 104.383L27.2163 104.116L27.4754 104.131L27.7395 104.399Z" fill="#35365D"/>
<path d="M27.7395 104.399L27.4805 104.383L27.2544 104.62L27.5135 104.635L27.7395 104.399Z" fill="#35365D"/>
<path d="M27.0433 104.356L26.7893 104.315L26.6064 104.038L26.8604 104.079L27.0433 104.356Z" fill="#35365D"/>
<path d="M27.0437 104.356L26.7897 104.315L26.4976 104.52L26.7516 104.557L27.0437 104.356Z" fill="#35365D"/>
<path d="M26.345 104.237L26.1037 104.174L25.9995 103.895L26.2408 103.955L26.345 104.237Z" fill="#35365D"/>
<path d="M26.3448 104.237L26.1035 104.174L25.7505 104.341L25.9918 104.401L26.3448 104.237Z" fill="#35365D"/>
<path d="M25.6568 104.048L25.4358 103.965L25.4155 103.69L25.639 103.774L25.6568 104.048Z" fill="#35365D"/>
<path d="M25.6569 104.048L25.4359 103.965L25.0371 104.089L25.2581 104.169L25.6569 104.048Z" fill="#35365D"/>
<path d="M25.0169 103.799L24.8213 103.7L24.8899 103.438L25.0854 103.539L25.0169 103.799Z" fill="#35365D"/>
<path d="M25.0166 103.799L24.8211 103.701L24.3867 103.774L24.5823 103.874L25.0166 103.799Z" fill="#35365D"/>
<path d="M24.4859 103.519L24.3208 103.406L24.4681 103.164L24.6307 103.277L24.4859 103.519Z" fill="#35365D"/>
<path d="M24.486 103.519L24.3209 103.406L23.8662 103.431L24.0313 103.544L24.486 103.519Z" fill="#35365D"/>
<path d="M24.0563 103.204L23.9268 103.083L24.1401 102.869L24.2697 102.992L24.0563 103.204Z" fill="#35365D"/>
<path d="M24.0566 103.204L23.927 103.083L23.4673 103.063L23.5968 103.186L24.0566 103.204Z" fill="#35365D"/>
<path d="M23.7214 102.859L23.6274 102.73L23.8992 102.549L23.9932 102.675L23.7214 102.859Z" fill="#35365D"/>
<path d="M23.7214 102.859L23.6274 102.73L23.1753 102.67L23.2693 102.798L23.7214 102.859Z" fill="#35365D"/>
<path d="M23.4696 102.478L23.4111 102.347L23.7363 102.201L23.7921 102.332L23.4696 102.478Z" fill="#35365D"/>
<path d="M23.4696 102.478L23.4112 102.347L22.9819 102.249L23.0378 102.38L23.4696 102.478Z" fill="#35365D"/>
<path d="M23.3176 102.08L23.2998 101.952L23.6656 101.846L23.6833 101.974L23.3176 102.08Z" fill="#35365D"/>
<path d="M23.3174 102.08L23.2997 101.952L22.9009 101.816L22.9187 101.947L23.3174 102.08Z" fill="#35365D"/>
<path d="M23.2871 101.679L23.31 101.556L23.7037 101.49L23.6808 101.614L23.2871 101.679Z" fill="#35365D"/>
<path d="M23.2871 101.679L23.31 101.556L22.9544 101.387L22.9341 101.511L23.2871 101.679Z" fill="#35365D"/>
<path d="M23.3984 101.276L23.4594 101.163L23.8709 101.145L23.8099 101.259L23.3984 101.276Z" fill="#35365D"/>
<path d="M23.3987 101.276L23.4597 101.163L23.1625 100.969L23.1016 101.082L23.3987 101.276Z" fill="#35365D"/>
<path d="M23.668 100.883L23.767 100.785L24.181 100.81L24.082 100.911L23.668 100.883Z" fill="#35365D"/>
<path d="M23.6677 100.883L23.7667 100.785L23.5356 100.568L23.4365 100.669L23.6677 100.883Z" fill="#35365D"/>
<path d="M30.3331 103.801L30.4931 103.688L30.2645 103.393L30.1045 103.509L30.3331 103.801Z" fill="#35365D"/>
<path d="M30.333 103.801L30.493 103.688L31.0264 103.766L30.8664 103.879L30.333 103.801Z" fill="#35365D"/>
<path d="M30.7343 103.509L30.8486 103.378L30.5362 103.111L30.4219 103.242L30.7343 103.509Z" fill="#35365D"/>
<path d="M30.7344 103.509L30.8487 103.378L31.3745 103.398L31.2602 103.529L30.7344 103.509Z" fill="#35365D"/>
<path d="M31.0036 103.176L31.0671 103.035L30.6886 102.801L30.6226 102.945L31.0036 103.176Z" fill="#35365D"/>
<path d="M31.0034 103.176L31.0669 103.035L31.5724 103L31.5063 103.144L31.0034 103.176Z" fill="#35365D"/>
<path d="M31.1661 102.803L31.1839 102.655L30.7546 102.463L30.7368 102.609L31.1661 102.803Z" fill="#35365D"/>
<path d="M31.166 102.803L31.1838 102.655L31.6486 102.572L31.6308 102.72L31.166 102.803Z" fill="#35365D"/>
<path d="M31.209 102.41L31.1836 102.262L30.7188 102.11L30.7467 102.259L31.209 102.41Z" fill="#35365D"/>
<path d="M31.209 102.41L31.1836 102.262L31.6002 102.133L31.6256 102.282L31.209 102.41Z" fill="#35365D"/>
<path d="M31.1327 102.012L31.0667 101.866L30.5815 101.76L30.6501 101.906L31.1327 102.012Z" fill="#35365D"/>
<path d="M31.1329 102.012L31.0669 101.866L31.4225 101.697L31.4885 101.843L31.1329 102.012Z" fill="#35365D"/>
<path d="M30.9274 101.611L30.8207 101.473L30.333 101.412L30.4397 101.551L30.9274 101.611Z" fill="#35365D"/>
<path d="M30.927 101.611L30.8203 101.473L31.1073 101.271L31.2166 101.41L30.927 101.611Z" fill="#35365D"/>
<path d="M30.5969 101.218L30.4547 101.09L29.9746 101.08L30.1168 101.206L30.5969 101.218Z" fill="#35365D"/>
<path d="M30.5968 101.218L30.4546 101.09L30.6679 100.863L30.8102 100.989L30.5968 101.218Z" fill="#35365D"/>
<path d="M30.1651 100.85L29.9898 100.74L29.5352 100.777L29.7079 100.891L30.1651 100.85Z" fill="#35365D"/>
<path d="M30.165 100.85L29.9897 100.74L30.1193 100.49L30.2945 100.601L30.165 100.85Z" fill="#35365D"/>
<path d="M29.6748 100.545L29.4742 100.452L29.0576 100.535L29.2557 100.629L29.6748 100.545Z" fill="#35365D"/>
<path d="M29.6748 100.545L29.4741 100.452L29.5224 100.193L29.7205 100.286L29.6748 100.545Z" fill="#35365D"/>
<path d="M29.1263 100.301L28.9129 100.225L28.5396 100.349L28.7529 100.422L29.1263 100.301Z" fill="#35365D"/>
<path d="M29.1263 100.301L28.9129 100.225L28.8799 99.9634L29.0958 100.039L29.1263 100.301Z" fill="#35365D"/>
<path d="M28.5221 100.107L28.2986 100.054L27.9785 100.21L28.2046 100.266L28.5221 100.107Z" fill="#35365D"/>
<path d="M28.522 100.107L28.2985 100.054L28.1943 99.7945L28.4179 99.8499L28.522 100.107Z" fill="#35365D"/>
<path d="M27.8591 99.9634L27.633 99.9306L27.3765 100.117L27.6051 100.15L27.8591 99.9634Z" fill="#35365D"/>
<path d="M27.8587 99.9634L27.6327 99.9306L27.46 99.6837L27.686 99.7164L27.8587 99.9634Z" fill="#35365D"/>
<path d="M27.1629 99.8777L26.9394 99.8676L26.7515 100.077L26.9775 100.087L27.1629 99.8777Z" fill="#35365D"/>
<path d="M27.1629 99.8777L26.9393 99.8676L26.7031 99.6383L26.9292 99.6484L27.1629 99.8777Z" fill="#35365D"/>
<path d="M26.4618 99.86L26.2485 99.8727L26.1367 100.099L26.3501 100.087L26.4618 99.86Z" fill="#35365D"/>
<path d="M26.4621 99.8601L26.2487 99.8727L25.9541 99.6685L26.17 99.6559L26.4621 99.8601Z" fill="#35365D"/>
<path d="M25.7609 99.923L25.5628 99.9583L25.5298 100.195L25.7279 100.16L25.7609 99.923Z" fill="#35365D"/>
<path d="M25.7606 99.923L25.5625 99.9583L25.2222 99.7895L25.4203 99.7542L25.7606 99.923Z" fill="#35365D"/>
<path d="M25.0752 100.077L24.8999 100.135L24.9482 100.372L25.1209 100.316L25.0752 100.077Z" fill="#35365D"/>
<path d="M25.075 100.077L24.8997 100.135L24.5264 100.001L24.6991 99.9457L25.075 100.077Z" fill="#35365D"/>
<path d="M24.4501 100.241L24.0335 100.288L23.9497 100.528L24.3688 100.48L24.4501 100.241Z" fill="#35365D"/>
<path d="M24.4501 100.241L23.9497 100.528L24.3688 100.48L24.4501 100.241Z" fill="#35365D"/>
<path d="M38.6081 94.936L31.4225 99.0562C31.3042 99.109 31.1751 99.1337 31.0455 99.1285C30.9159 99.1232 30.7893 99.0881 30.6757 99.0259C30.4547 98.8999 30.4217 98.7084 30.6224 98.5975L37.8106 94.4773C37.9283 94.424 38.057 94.3989 38.1863 94.4041C38.3156 94.4094 38.4419 94.4448 38.5548 94.5076C38.7859 94.6336 38.8113 94.8251 38.6081 94.936Z" fill="#0D355F"/>
<path d="M40.4118 95.9616L33.2236 100.082C33.1059 100.135 32.9771 100.16 32.8478 100.155C32.7185 100.15 32.5923 100.114 32.4793 100.052C32.2584 99.9256 32.2253 99.7341 32.4235 99.6257L39.6244 95.508C39.7427 95.455 39.872 95.4304 40.0017 95.436C40.1314 95.4417 40.258 95.4776 40.3711 95.5408C40.5794 95.6617 40.6023 95.8533 40.4118 95.9616Z" fill="#0D355F"/>
<path d="M50.0382 95.4223L35.6567 103.658C35.539 103.711 35.4103 103.736 35.281 103.731C35.1517 103.726 35.0254 103.69 34.9125 103.627C34.6915 103.501 34.6585 103.31 34.8592 103.202L49.2381 94.9637C49.3564 94.9109 49.4855 94.8861 49.6151 94.8914C49.7447 94.8966 49.8713 94.9317 49.9849 94.9939C50.216 95.1199 50.2389 95.3115 50.0382 95.4223Z" fill="#0D355F"/>
<path d="M51.839 96.448L37.4601 104.686C37.3418 104.739 37.2127 104.763 37.0831 104.758C36.9535 104.753 36.8269 104.718 36.7133 104.656C36.4923 104.527 36.4593 104.336 36.66 104.227L51.0541 95.9893C51.172 95.9363 51.3009 95.9117 51.4302 95.9174C51.5595 95.9231 51.6856 95.9589 51.7984 96.0221C52.0066 96.1481 52.032 96.3396 51.839 96.448Z" fill="#0D355F"/>
<path opacity="0.2" d="M79.9644 114.988L39.9873 92.0909L73.0454 73.1556L113.02 96.0523L79.9644 114.988Z" fill="black"/>
<path d="M72.5273 64.5926L71.8136 64.1844L39.8096 82.525V82.9332C39.8125 85.4109 40.4709 87.8444 41.7189 89.9905C42.967 92.1367 44.761 93.9202 46.9216 95.1628L79.9594 114.088L111.971 95.76V94.9435L79.2863 76.2123C77.231 75.0342 75.5245 73.3403 74.3381 71.3006C73.1517 69.261 72.5272 66.9475 72.5273 64.5926Z" fill="#7DB834"/>
<path opacity="0.4" d="M79.9566 113.271L111.971 94.9334V95.7499L79.9541 114.09L79.9566 113.271Z" fill="black"/>
<path opacity="0.3" d="M40.5105 82.9333L39.7993 82.5251L71.816 64.187L72.5272 64.5927L40.5105 82.9333Z" fill="white"/>
<path d="M111.971 94.9335L79.2864 76.2124C77.2312 75.0343 75.5246 73.3403 74.3382 71.3007C73.1518 69.261 72.5273 66.9476 72.5274 64.5927L40.5234 82.9332C40.5235 85.288 41.1484 87.6014 42.3353 89.6406C43.5222 91.6799 45.2293 93.3732 47.2849 94.5504L79.9696 113.271L111.974 94.9335H111.971Z" fill="#7DB834"/>
<path d="M47.8792 93.5071C46.1123 92.4907 44.6271 91.0553 43.5565 89.3296C42.486 87.6038 41.8636 85.6416 41.7451 83.6186L71.4631 66.6011C71.7763 68.8038 72.5895 70.9073 73.8412 72.7529C75.093 74.5985 76.7507 76.1381 78.6894 77.2556L109.553 94.9334L79.9569 111.888L47.8792 93.5071Z" fill="#0D355F"/>
<path opacity="0.2" d="M47.2722 94.5504L79.9569 113.271V114.088L46.9191 95.1628C44.7585 93.9202 42.9645 92.1367 41.7165 89.9905C40.4684 87.8444 39.81 85.4109 39.8071 82.9332V82.525L40.5183 82.9332C40.5176 85.2873 41.1414 87.6001 42.3269 89.6393C43.5124 91.6785 45.218 93.3723 47.2722 94.5504Z" fill="black"/>
<path d="M63.5791 73.8864L69.8123 70.308C69.8547 70.2747 69.9042 70.2514 69.9569 70.2397C70.0097 70.2279 70.0644 70.2281 70.1171 70.2402C70.1698 70.2523 70.2191 70.276 70.2613 70.3096C70.3035 70.3431 70.3375 70.3856 70.3609 70.434C70.3892 70.5496 70.3775 70.6713 70.3277 70.7796C70.278 70.8879 70.1931 70.9765 70.0866 71.0312L63.8535 74.6021C63.8108 74.6352 63.7613 74.6584 63.7084 74.67C63.6555 74.6815 63.6007 74.6811 63.548 74.6688C63.4953 74.6564 63.446 74.6325 63.4039 74.5987C63.3619 74.5649 63.328 74.5221 63.3048 74.4735C63.2786 74.3594 63.2913 74.2398 63.341 74.1335C63.3906 74.0273 63.4744 73.9404 63.5791 73.8864Z" fill="#E0E0E0"/>
<path d="M49.0654 86.9577L62.0879 79.5211C62.1305 79.4885 62.1799 79.4656 62.2325 79.4544C62.2851 79.4431 62.3396 79.4436 62.3919 79.456C62.4443 79.4683 62.4932 79.4921 62.5351 79.5256C62.577 79.5591 62.6108 79.6015 62.634 79.6497C62.6632 79.7647 62.6523 79.8861 62.6029 79.9941C62.5535 80.1022 62.4687 80.1904 62.3623 80.2444L49.3397 87.6809C49.2975 87.7141 49.2482 87.7375 49.1956 87.7492C49.143 87.7609 49.0885 87.7607 49.036 87.7486C48.9835 87.7365 48.9344 87.7128 48.8925 87.6792C48.8505 87.6457 48.8167 87.6032 48.7936 87.5549C48.7647 87.4395 48.7758 87.3179 48.8251 87.2095C48.8744 87.1012 48.959 87.0125 49.0654 86.9577Z" fill="#E0E0E0"/>
<path d="M51.1607 90.095L72.6441 77.7924C72.7663 77.7284 72.9019 77.694 73.0401 77.6918C73.1782 77.6896 73.3149 77.7197 73.4391 77.7798C73.6525 77.9007 73.6398 78.1048 73.4137 78.2334L51.9405 90.5335C51.8185 90.5978 51.683 90.6327 51.5448 90.6354C51.4067 90.638 51.2699 90.6083 51.1455 90.5486C50.922 90.4276 50.9347 90.216 51.1607 90.095Z" fill="#E0E0E0"/>
<path d="M52.6973 90.972L74.1679 78.6744C74.2895 78.6101 74.4246 78.5752 74.5623 78.5725C74.7001 78.5699 74.8365 78.5996 74.9604 78.6593C75.1738 78.7802 75.1611 78.9844 74.935 79.1154L53.4669 91.4155C53.3448 91.4793 53.2093 91.5138 53.0712 91.5165C52.9332 91.5191 52.7965 91.4897 52.6719 91.4306C52.4611 91.3072 52.4712 91.103 52.6973 90.972Z" fill="#E0E0E0"/>
<path d="M63.4594 97.1385L84.9351 84.8383C85.0568 84.7746 85.1919 84.74 85.3295 84.7374C85.4671 84.7348 85.6035 84.7642 85.7276 84.8232C85.9409 84.9467 85.9282 85.1508 85.7022 85.2793L64.229 97.5795C64.107 97.6438 63.9715 97.6787 63.8333 97.6813C63.6952 97.6839 63.5584 97.6542 63.434 97.5946C63.2232 97.4736 63.246 97.272 63.4594 97.1385Z" fill="#E0E0E0"/>
<path d="M64.999 98.028L86.4721 85.7279C86.5941 85.6635 86.7297 85.6286 86.8678 85.626C87.006 85.6234 87.1428 85.6531 87.2672 85.7128C87.478 85.8337 87.4678 86.0378 87.2418 86.1664L65.7661 98.469C65.6433 98.531 65.5075 98.5633 65.3698 98.5633C65.2321 98.5633 65.0963 98.531 64.9736 98.469C64.7704 98.3531 64.7704 98.149 64.999 98.028Z" fill="#E0E0E0"/>
<path d="M68.0721 99.792L89.5452 87.4919C89.6672 87.4275 89.8028 87.3926 89.9409 87.39C90.0791 87.3874 90.2159 87.4171 90.3403 87.4767C90.5536 87.5977 90.5409 87.8018 90.3149 87.9329L68.8341 100.223C68.7123 100.287 68.5773 100.321 68.4396 100.324C68.302 100.326 68.1657 100.297 68.0416 100.238C67.8333 100.115 67.846 99.9129 68.0721 99.792Z" fill="#E0E0E0"/>
<path d="M69.6089 100.661L91.0846 88.3613C91.2064 88.2973 91.3416 88.2629 91.4793 88.2607C91.6171 88.2585 91.7534 88.2886 91.8771 88.3486C92.0905 88.4696 92.0778 88.6737 91.8517 88.8023L70.3785 101.102C70.2566 101.167 70.121 101.202 69.9829 101.204C69.8447 101.207 69.7079 101.177 69.5835 101.117C69.3727 100.997 69.3829 100.8 69.6089 100.661Z" fill="#E0E0E0"/>
<path d="M73.4545 102.864L84.8718 96.3245C84.9936 96.2607 85.1287 96.2262 85.2663 96.2236C85.4039 96.2209 85.5402 96.2503 85.6643 96.3094C85.8777 96.4328 85.865 96.6344 85.6389 96.7655L74.2089 103.305C74.0872 103.369 73.9521 103.403 73.8145 103.406C73.6769 103.408 73.5405 103.379 73.4164 103.32C73.2158 103.197 73.2285 102.992 73.4545 102.864Z" fill="#E0E0E0"/>
<path d="M75.0547 103.708L86.472 97.1561C86.594 97.0918 86.7296 97.0569 86.8677 97.0542C87.0059 97.0516 87.1427 97.0813 87.2671 97.141C87.4779 97.2619 87.4677 97.4661 87.2417 97.5946L75.8117 104.134C75.6901 104.198 75.555 104.233 75.4173 104.236C75.2795 104.238 75.1431 104.209 75.0192 104.149C74.816 104.041 74.8287 103.837 75.0547 103.708Z" fill="#E0E0E0"/>
<path d="M97.4471 96.264C95.9002 97.151 93.185 97.0402 91.3968 96.012C89.6087 94.9838 89.4156 93.434 90.9625 92.547C92.5093 91.66 95.2246 91.7708 97.0128 92.799C98.8009 93.8272 98.9965 95.382 97.4471 96.264ZM91.1987 92.6856C89.7636 93.5071 89.9439 94.9536 91.6026 95.8986C93.2612 96.8436 95.7758 96.952 97.2109 96.1304C98.646 95.3089 98.4682 93.8624 96.8096 92.9149C95.1509 91.9674 92.6338 91.8666 91.1987 92.6906V92.6856Z" fill="#7DB834"/>
<path d="M96.9645 95.9918L96.9061 96.0044C93.947 96.6596 90.9524 94.7948 90.9219 94.7772L90.8736 94.747V94.7066C90.8457 94.1094 91.1937 93.6508 92.0344 93.1669C92.8477 92.6926 93.7818 92.4616 94.7243 92.5016H94.7903L94.8436 92.5294C94.8767 92.5445 98.1304 94.2606 96.9874 95.9566L96.9645 95.9918ZM91.2038 94.689C91.5899 94.9183 94.1655 96.3648 96.6928 95.8381C97.6148 94.3891 95.09 92.9149 94.6912 92.6932C93.8464 92.6688 93.012 92.8839 92.2859 93.3131C91.5213 93.744 91.186 94.1648 91.2038 94.689Z" fill="#7DB834"/>
<path d="M92.695 93.807L93.0354 94.0036L92.8322 94.1875L94.3054 95.0317C94.471 95.1322 94.66 95.1886 94.854 95.1955C95.0275 95.2008 95.199 95.158 95.3493 95.072C95.5017 94.9838 95.5779 94.8881 95.5728 94.7848C95.5677 94.6815 95.4712 94.5781 95.2858 94.4698L93.8101 93.6256L93.4926 93.7415L93.1497 93.5475L94.1657 92.9653L94.5086 93.1619L94.3028 93.3459L95.7786 94.19C96.0935 94.3715 96.2485 94.563 96.2408 94.7646C96.2332 94.9662 96.0808 95.1527 95.7862 95.319C95.4873 95.4914 95.1477 95.5822 94.8019 95.5822C94.4562 95.5822 94.1166 95.4914 93.8177 95.319L92.3445 94.4748L92.0244 94.5907L91.6841 94.3967L91.9381 94.2455L92.4283 93.9658L92.695 93.807Z" fill="#7DB834"/>
<path d="M98.232 96.8461L97.9628 96.9696L97.2744 96.7932L97.5437 96.6697L98.232 96.8461Z" fill="#7DB834"/>
<path d="M98.2321 96.8461L97.9629 96.9696L98.1483 97.3804L98.415 97.2569L98.2321 96.8461Z" fill="#7DB834"/>
<path d="M97.5412 97.156L97.2338 97.2443L96.6064 97.0023L96.9138 96.9141L97.5412 97.156Z" fill="#7DB834"/>
<path d="M97.5412 97.1561L97.2339 97.2443L97.2821 97.65L97.592 97.5618L97.5412 97.1561Z" fill="#7DB834"/>
<path d="M96.7613 97.3627L96.4285 97.4131L95.8799 97.1208L96.2152 97.0704L96.7613 97.3627Z" fill="#7DB834"/>
<path d="M96.7612 97.3627L96.4284 97.4131L96.3472 97.8037L96.6824 97.7508L96.7612 97.3627Z" fill="#7DB834"/>
<path d="M95.8853 97.4887L95.5373 97.5038L95.0801 97.1712L95.4281 97.1586L95.8853 97.4887Z" fill="#7DB834"/>
<path d="M95.8851 97.4887L95.5371 97.5038L95.3364 97.8642L95.6844 97.8491L95.8851 97.4887Z" fill="#7DB834"/>
<path d="M94.9605 97.524L94.61 97.5038L94.2544 97.146L94.6049 97.1662L94.9605 97.524Z" fill="#7DB834"/>
<path d="M94.9605 97.524L94.61 97.5038L94.3052 97.8239L94.6557 97.844L94.9605 97.524Z" fill="#7DB834"/>
<path d="M94.0231 97.4635L93.6776 97.4131L93.4287 97.0376L93.7716 97.0905L94.0231 97.4635Z" fill="#7DB834"/>
<path d="M94.0233 97.4635L93.6779 97.4131L93.2842 97.6878L93.6271 97.7407L94.0233 97.4635Z" fill="#7DB834"/>
<path d="M93.0786 97.3048L92.7509 97.2241L92.6138 96.8461L92.9389 96.9268L93.0786 97.3048Z" fill="#7DB834"/>
<path d="M93.0784 97.3048L92.7508 97.2241L92.2783 97.4459L92.6034 97.529L93.0784 97.3048Z" fill="#7DB834"/>
<path d="M92.1513 97.0502L91.8516 96.9419L91.8262 96.5689L92.1259 96.6798L92.1513 97.0502Z" fill="#7DB834"/>
<path d="M92.1512 97.0503L91.8515 96.9419L91.313 97.1057L91.6127 97.2141L92.1512 97.0503Z" fill="#7DB834"/>
<path d="M91.2875 96.7176L91.0259 96.5815L91.1148 96.2312L91.3789 96.3648L91.2875 96.7176Z" fill="#7DB834"/>
<path d="M91.2878 96.7176L91.0262 96.5815L90.4395 96.6823L90.7036 96.8158L91.2878 96.7176Z" fill="#7DB834"/>
<path d="M90.5716 96.3371L90.3506 96.1833L90.5462 95.8608L90.7671 96.0145L90.5716 96.3371Z" fill="#7DB834"/>
<path d="M90.5714 96.3371L90.3504 96.1833L89.7383 96.2186L89.9593 96.3723L90.5714 96.3371Z" fill="#7DB834"/>
<path d="M89.9922 95.9137L89.8169 95.7499L90.1065 95.4601L90.2817 95.6264L89.9922 95.9137Z" fill="#7DB834"/>
<path d="M89.9922 95.9137L89.8169 95.7499L89.1997 95.7247L89.375 95.891L89.9922 95.9137Z" fill="#7DB834"/>
<path d="M89.5401 95.4475L89.4131 95.2736L89.7814 95.0292L89.9084 95.2031L89.5401 95.4475Z" fill="#7DB834"/>
<path d="M89.5402 95.4475L89.4132 95.2736L88.8062 95.193L88.9332 95.3669L89.5402 95.4475Z" fill="#7DB834"/>
<path d="M89.2023 94.936L89.1235 94.7595L89.5604 94.563L89.6366 94.7394L89.2023 94.936Z" fill="#7DB834"/>
<path d="M89.2023 94.9359L89.1236 94.7595L88.5444 94.626L88.6206 94.8024L89.2023 94.9359Z" fill="#7DB834"/>
<path d="M88.9965 94.3992L88.9736 94.2253L89.4639 94.0817L89.4893 94.2555L88.9965 94.3992Z" fill="#7DB834"/>
<path d="M88.9964 94.3992L88.9735 94.2253L88.4351 94.0439L88.4605 94.2178L88.9964 94.3992Z" fill="#7DB834"/>
<path d="M88.9561 93.8574L88.984 93.6911L89.5174 93.6054L89.4869 93.7717L88.9561 93.8574Z" fill="#7DB834"/>
<path d="M88.956 93.8574L88.984 93.6911L88.509 93.4643L88.4785 93.6306L88.956 93.8574Z" fill="#7DB834"/>
<path d="M89.106 93.3156L89.1898 93.1618L89.7435 93.1392L89.6622 93.2904L89.106 93.3156Z" fill="#7DB834"/>
<path d="M89.1059 93.3156L89.1897 93.1619L88.7884 92.8998L88.7046 93.0535L89.1059 93.3156Z" fill="#7DB834"/>
<path d="M89.4692 92.7839L89.6013 92.6503L90.1601 92.6881L90.028 92.8217L89.4692 92.7839Z" fill="#7DB834"/>
<path d="M89.4691 92.7839L89.6011 92.6503L89.2913 92.3605L89.1592 92.4966L89.4691 92.7839Z" fill="#7DB834"/>
<path d="M98.4554 96.7176L98.6713 96.5638L98.3614 96.1707L98.1455 96.3244L98.4554 96.7176Z" fill="#7DB834"/>
<path d="M98.4556 96.7176L98.6715 96.5638L99.3877 96.6697L99.1718 96.8234L98.4556 96.7176Z" fill="#7DB834"/>
<path d="M98.9963 96.3245L99.1487 96.1481L98.7271 95.7877L98.5747 95.9641L98.9963 96.3245Z" fill="#7DB834"/>
<path d="M98.9966 96.3245L99.149 96.1481L99.8576 96.1758L99.7052 96.3522L98.9966 96.3245Z" fill="#7DB834"/>
<path d="M99.3572 95.8759L99.4461 95.6844L98.933 95.3719L98.8467 95.5634L99.3572 95.8759Z" fill="#7DB834"/>
<path d="M99.3574 95.8759L99.4463 95.6844L100.124 95.639L100.036 95.8306L99.3574 95.8759Z" fill="#7DB834"/>
<path d="M99.5781 95.3744L99.6035 95.1753L99.0244 94.9133L98.999 95.1123L99.5781 95.3744Z" fill="#7DB834"/>
<path d="M99.5781 95.3744L99.6035 95.1754L100.228 95.0594L100.206 95.2585L99.5781 95.3744Z" fill="#7DB834"/>
<path d="M99.6365 94.8427L99.6009 94.6436L98.9761 94.4395L99.0116 94.6411L99.6365 94.8427Z" fill="#7DB834"/>
<path d="M99.6366 94.8427L99.6011 94.6436L100.162 94.4697L100.198 94.6688L99.6366 94.8427Z" fill="#7DB834"/>
<path d="M99.5352 94.3085L99.4438 94.1094L98.791 93.9683L98.8825 94.1648L99.5352 94.3085Z" fill="#7DB834"/>
<path d="M99.5348 94.3085L99.4434 94.1094L99.9234 93.8851L100.015 94.0792L99.5348 94.3085Z" fill="#7DB834"/>
<path d="M99.2558 93.7667L99.1135 93.5802L98.4531 93.4996L98.5979 93.6861L99.2558 93.7667Z" fill="#7DB834"/>
<path d="M99.2555 93.7667L99.1133 93.5802L99.5019 93.308L99.6441 93.4945L99.2555 93.7667Z" fill="#7DB834"/>
<path d="M98.8113 93.2349L98.6208 93.0636L97.9731 93.0485L98.1636 93.2198L98.8113 93.2349Z" fill="#7DB834"/>
<path d="M98.8111 93.235L98.6206 93.0636L98.9051 92.7562L99.0981 92.9275L98.8111 93.235Z" fill="#7DB834"/>
<path d="M98.2293 92.741L97.9931 92.5898L97.3784 92.6428L97.6146 92.794L98.2293 92.741Z" fill="#7DB834"/>
<path d="M98.2294 92.741L97.9932 92.5898L98.1684 92.2546L98.4021 92.4058L98.2294 92.741Z" fill="#7DB834"/>
<path d="M97.5665 92.3303L97.2998 92.2043L96.7334 92.3152L97.0026 92.4437L97.5665 92.3303Z" fill="#7DB834"/>
<path d="M97.5665 92.3303L97.2998 92.2043L97.3608 91.854L97.6275 91.98L97.5665 92.3303Z" fill="#7DB834"/>
<path d="M96.8275 92.0002L96.5405 91.8994L96.0376 92.0632L96.3272 92.164L96.8275 92.0002Z" fill="#7DB834"/>
<path d="M96.8273 92.0001L96.5402 91.8993L96.4971 91.544L96.7866 91.6448L96.8273 92.0001Z" fill="#7DB834"/>
<path d="M96.0122 91.7406L95.7099 91.6675L95.2832 91.8792L95.5855 91.9497L96.0122 91.7406Z" fill="#7DB834"/>
<path d="M96.0123 91.7406L95.71 91.6675L95.5703 91.3198L95.8726 91.3928L96.0123 91.7406Z" fill="#7DB834"/>
<path d="M95.1205 91.5465L94.8132 91.5012L94.4678 91.7532L94.7751 91.796L95.1205 91.5465Z" fill="#7DB834"/>
<path d="M95.1205 91.5465L94.8132 91.5012L94.582 91.1685L94.8868 91.2139L95.1205 91.5465Z" fill="#7DB834"/>
<path d="M94.1832 91.4281L93.881 91.4155L93.627 91.6978L93.9318 91.7104L94.1832 91.4281Z" fill="#7DB834"/>
<path d="M94.1833 91.4281L93.8811 91.4155L93.561 91.1081L93.8658 91.1207L94.1833 91.4281Z" fill="#7DB834"/>
<path d="M93.2383 91.4055L92.9462 91.4231L92.7964 91.728L93.086 91.7104L93.2383 91.4055Z" fill="#7DB834"/>
<path d="M93.2385 91.4054L92.9464 91.4231L92.5527 91.1484L92.8423 91.1307L93.2385 91.4054Z" fill="#7DB834"/>
<path d="M92.2908 91.4911L92.0241 91.539L91.981 91.8565L92.2477 91.8086L92.2908 91.4911Z" fill="#7DB834"/>
<path d="M92.2908 91.4911L92.0241 91.539L91.5669 91.3097L91.8336 91.2618L92.2908 91.4911Z" fill="#7DB834"/>
<path d="M91.3641 91.7003L91.1304 91.7759L91.1939 92.0959L91.4301 92.0203L91.3641 91.7003Z" fill="#7DB834"/>
<path d="M91.3637 91.7003L91.13 91.7759L90.6245 91.597L90.8607 91.5214L91.3637 91.7003Z" fill="#7DB834"/>
<path d="M90.5257 91.917L89.9619 91.9825L89.8501 92.3051L90.4114 92.2396L90.5257 91.917Z" fill="#7DB834"/>
<path d="M90.5257 91.917L89.8501 92.3051L90.4114 92.2396L90.5257 91.917Z" fill="#7DB834"/>
<path d="M90.325 100.382C88.864 101.073 87.4542 101.867 86.106 102.756L85.72 103.008C85.4152 102.386 85.1112 101.763 84.8081 101.14C84.7929 101.062 84.7827 100.984 84.7649 100.906C84.6685 100.352 84.4976 99.8141 84.2569 99.3056C84.1024 98.9955 83.8865 98.7195 83.6219 98.4942C83.5584 98.4387 83.3197 98.4236 83.3451 98.5093C83.5201 99.0114 83.7306 99.5007 83.975 99.9734L84.5312 101.12C84.5566 101.254 84.577 101.387 84.5947 101.521C84.6157 101.663 84.6293 101.806 84.6354 101.949C84.6394 102.038 84.6145 102.127 84.5643 102.201L84.2874 101.977C84.2517 101.957 84.2124 101.945 84.1718 101.941C84.1313 101.936 84.0903 101.94 84.0512 101.952C83.9273 101.873 83.7984 101.804 83.6651 101.742C83.6016 101.712 83.4111 101.697 83.4263 101.763C83.4919 102.146 83.52 102.535 83.5102 102.924C83.3228 102.751 83.1596 102.554 83.025 102.337C82.9793 102.262 82.7177 102.267 82.7558 102.352C82.8923 102.657 82.9608 102.987 82.9564 103.32C82.952 103.483 82.9281 103.646 82.8853 103.804C82.8548 103.912 82.7888 104.139 82.5272 104.126C82.3725 104.106 82.2299 104.033 82.1233 103.92C82.3741 103.38 82.4555 102.777 82.357 102.191C82.3231 102.029 82.2711 101.871 82.2021 101.72C82.2021 101.697 82.1335 101.677 82.0979 101.672C81.9939 101.65 81.8858 101.658 81.7861 101.695C81.6864 101.731 81.599 101.795 81.534 101.879C81.43 102.019 81.3565 102.18 81.3181 102.35C81.239 102.69 81.2821 103.046 81.4401 103.358C81.5266 103.541 81.6396 103.711 81.7753 103.862C81.7926 103.882 81.8113 103.902 81.8312 103.92C81.6237 104.446 81.2458 104.89 80.7568 105.18C80.5734 105.284 80.3792 105.368 80.1777 105.432C79.9636 105.515 79.7342 105.552 79.5046 105.54H79.4893C80.1704 104.943 80.6634 104.163 80.9092 103.295C81.0921 102.715 81.1183 102.098 80.9854 101.506C80.9116 101.198 80.7944 100.902 80.6374 100.626C80.4777 100.284 80.222 99.9955 79.9008 99.7945C79.6867 99.6909 79.4511 99.6385 79.2129 99.6416C78.9747 99.6446 78.7405 99.703 78.5292 99.8121C78.1745 99.9849 77.898 100.283 77.7545 100.649C77.5176 101.257 77.4305 101.913 77.5005 102.561C77.5539 103.25 77.7548 103.919 78.0898 104.525C78.2842 104.894 78.5657 105.211 78.9102 105.449C78.979 105.496 79.0522 105.535 79.1287 105.568C78.8249 105.818 78.4914 106.031 78.1355 106.2C77.9371 106.295 77.7336 106.379 77.5259 106.452C77.4319 106.485 77.6377 106.578 77.724 106.548C78.3236 106.346 78.8825 106.041 79.375 105.646C79.4446 105.66 79.515 105.668 79.5859 105.671C79.8283 105.676 80.0697 105.639 80.2996 105.563C80.6838 105.459 81.0403 105.274 81.3441 105.018C81.6478 104.763 81.8913 104.445 82.0573 104.086C82.1401 104.137 82.2299 104.176 82.324 104.202C82.4391 104.241 82.5617 104.252 82.6821 104.236C82.8025 104.219 82.9173 104.175 83.0174 104.106C83.1466 103.969 83.2199 103.79 83.2231 103.602C83.2595 103.364 83.2552 103.121 83.2104 102.884C83.3121 102.985 83.4198 103.079 83.533 103.166C83.594 103.217 83.787 103.229 83.787 103.166C83.8089 102.755 83.7902 102.342 83.7311 101.934C83.905 102.032 84.0663 102.15 84.2112 102.287C84.244 102.308 84.281 102.321 84.3196 102.326C84.3582 102.331 84.3975 102.328 84.4347 102.317L84.4703 102.347C84.5058 102.37 84.5465 102.383 84.5887 102.386C84.6308 102.389 84.6731 102.382 84.7116 102.365C84.7893 102.315 84.8505 102.243 84.8875 102.159C84.9245 102.075 84.9358 101.982 84.9199 101.891C85.1205 102.304 85.3237 102.718 85.5244 103.134C84.4423 103.869 83.4187 104.645 82.4205 105.414C82.0878 105.666 81.7601 105.931 81.4324 106.193L80.9397 106.596L80.6857 106.793L80.5765 106.878C80.5359 106.904 80.4992 106.936 80.4672 106.971C80.4387 106.967 80.4094 106.967 80.3809 106.971C80.1751 106.984 80.3072 107.125 80.4749 107.135C80.5498 107.141 80.6242 107.119 80.6831 107.072L80.9498 106.861C81.2623 106.609 81.5721 106.357 81.8871 106.117C82.5145 105.613 83.1571 105.124 83.7972 104.638C84.3797 104.199 84.9774 103.769 85.5904 103.348C85.7758 103.726 85.9587 104.104 86.1441 104.484C86.2788 104.764 86.4108 105.044 86.5505 105.321C86.6774 105.596 86.881 105.83 87.1373 105.994C87.2338 106.054 87.4903 106.009 87.371 105.936C87.1397 105.789 86.9555 105.58 86.8401 105.333C86.7131 105.094 86.6013 104.852 86.4845 104.61L85.7987 103.204C86.4769 102.745 87.1779 102.297 87.912 101.866C88.7426 101.38 89.6138 100.911 90.5383 100.48C90.6577 100.417 90.424 100.339 90.325 100.382ZM83.8404 99.099C83.9968 99.354 84.1206 99.6275 84.2087 99.9129C84.074 99.6408 83.9521 99.3711 83.8404 99.099ZM81.7601 103.466C81.6078 103.206 81.5363 102.907 81.5544 102.607C81.5679 102.446 81.6109 102.289 81.6814 102.143C81.7157 102.066 81.7592 101.993 81.8109 101.926C81.8464 101.876 81.8946 101.836 81.9506 101.811C82.1601 102.38 82.1601 103.005 81.9506 103.575C81.9506 103.617 81.9227 103.658 81.91 103.701C81.854 103.626 81.8039 103.548 81.7601 103.466ZM78.9026 105.23C78.7533 105.096 78.6203 104.944 78.5064 104.779C78.3106 104.487 78.1543 104.171 78.0415 103.839C77.9352 103.545 77.857 103.241 77.8079 102.932C77.7082 102.325 77.7367 101.705 77.8917 101.11C77.959 100.776 78.1131 100.466 78.3387 100.21C78.4767 100.066 78.6437 99.9516 78.8289 99.8751C79.0467 99.7694 79.2953 99.7444 79.53 99.8046C79.7188 99.8726 79.885 99.9912 80.01 100.147C80.1203 100.279 80.2197 100.418 80.3072 100.566C80.4671 100.824 80.5894 101.103 80.6704 101.395C80.8113 101.942 80.8113 102.516 80.6704 103.063C80.5225 103.67 80.2558 104.242 79.8856 104.746C79.6918 105.012 79.4695 105.256 79.2226 105.475C79.1059 105.411 78.9982 105.332 78.9026 105.24V105.23ZM89.2455 99.1368C89.1728 99.2342 89.079 99.3143 88.9712 99.3711C88.8902 99.4083 88.8011 99.4243 88.7122 99.4177C88.6233 99.4111 88.5376 99.3821 88.4632 99.3333C88.3015 99.2369 88.147 99.1291 88.0009 99.0108C87.8382 98.8881 87.683 98.756 87.5361 98.6151C87.4903 98.5698 87.2567 98.5295 87.2821 98.6151C87.4853 99.1695 87.7545 99.7617 87.6097 100.304C87.5665 100.462 87.3354 100.954 86.8909 100.729C86.7847 100.673 86.6872 100.602 86.6013 100.518C86.641 100.21 86.6159 99.8979 86.5277 99.6005C86.4523 99.2752 86.3272 98.9634 86.1568 98.6756C86.0552 98.5127 85.9202 98.3727 85.7606 98.2649C85.6857 98.2053 85.5968 98.1655 85.5022 98.1492C85.4076 98.1329 85.3104 98.1406 85.2196 98.1716C85.0646 98.2523 85.1154 98.4236 85.1332 98.5295C85.1577 98.6864 85.1969 98.8408 85.2501 98.9906C85.3726 99.3127 85.5439 99.6143 85.7581 99.8852C85.8663 100.028 85.9825 100.166 86.106 100.296C86.1797 100.372 86.2559 100.45 86.3372 100.523C86.2954 100.767 86.1834 100.995 86.0146 101.178C85.9638 101.233 86.1949 101.307 86.2457 101.251C86.3904 101.095 86.4973 100.908 86.5582 100.704C86.7359 100.833 86.9503 100.902 87.1703 100.901C87.2639 100.903 87.3569 100.887 87.4441 100.853C87.5313 100.819 87.6109 100.769 87.6783 100.704C87.7955 100.57 87.8779 100.41 87.9182 100.238C87.9585 100.065 87.9555 99.8851 87.9094 99.7139C87.8651 99.4497 87.7892 99.1916 87.6834 98.9453L87.8866 99.1091C88.0677 99.2815 88.2819 99.416 88.5165 99.5047C88.6917 99.5653 88.8818 99.5692 89.0594 99.5157C89.2369 99.4623 89.3928 99.3543 89.5046 99.2073C89.5427 99.1469 89.2937 99.0864 89.2455 99.1469V99.1368ZM86.1264 100.044C85.723 99.5988 85.463 99.0442 85.3796 98.4513C85.3678 98.3991 85.3759 98.3443 85.4025 98.2976C85.4025 98.2976 85.4228 98.2724 85.4355 98.2674H85.4507C85.5054 98.2924 85.556 98.3255 85.6006 98.3657C85.7356 98.4719 85.8479 98.6038 85.9308 98.7537C86.0632 99.0051 86.1663 99.2705 86.2381 99.545C86.3153 99.7897 86.3547 100.045 86.355 100.301C86.2737 100.21 86.1975 100.125 86.1264 100.044ZM90.1065 99.0662C90.0075 99.1242 90.2462 99.2023 90.325 99.1569C90.4037 99.1116 90.1878 99.0183 90.1065 99.0637V99.0662Z" fill="#455A64"/>
<path d="M75.9741 80.5392L56.0503 91.9523L62.2708 95.508L82.1945 84.0949L75.9741 80.5392ZM56.9825 91.9523L75.9741 81.0734L81.2623 84.0974L62.2708 94.9763L56.9825 91.9523ZM65.7201 90.7754C65.6094 90.6557 65.483 90.5515 65.3442 90.4655C65.1537 90.347 64.9555 90.2336 64.7473 90.1253C64.5754 90.0362 64.395 89.9645 64.2088 89.9111C64.0311 89.859 63.8477 89.8285 63.6627 89.8203C63.4815 89.8149 63.3004 89.8336 63.1242 89.8758C62.9391 89.9193 62.7617 89.9907 62.5984 90.0875L61.7374 90.5789C61.712 90.594 61.6993 90.6116 61.7043 90.6343C61.7064 90.6477 61.712 90.6603 61.7204 90.6709C61.7289 90.6815 61.74 90.6897 61.7526 90.6948L64.3485 92.1841C64.381 92.2001 64.4164 92.2095 64.4526 92.2118C64.4869 92.2141 64.5211 92.2071 64.5517 92.1917L65.428 91.6877C65.5674 91.6151 65.6902 91.5148 65.7887 91.3928C65.8563 91.3061 65.8881 91.1971 65.8776 91.0879C65.8563 90.9709 65.8017 90.8625 65.7201 90.7754ZM65.1105 91.2416C65.0569 91.3118 64.9884 91.3695 64.9098 91.4105L64.4247 91.6877L62.6162 90.6519L63.0836 90.3848C63.1773 90.3291 63.2793 90.2883 63.3858 90.2639C63.4864 90.2402 63.5898 90.23 63.6932 90.2336C63.7954 90.2381 63.8968 90.2542 63.9954 90.2815C64.0926 90.311 64.1869 90.3489 64.2774 90.3949C64.4856 90.5033 64.6838 90.6167 64.8743 90.7351C64.9467 90.7805 65.0126 90.8356 65.0698 90.8989C65.116 90.946 65.1469 91.0056 65.1587 91.0703C65.1642 91.1313 65.147 91.1922 65.1105 91.2416ZM64.0335 92.3655L64.0005 92.3504L60.6071 91.3827C60.5575 91.3671 60.5064 91.3569 60.4547 91.3525C60.4138 91.3503 60.3732 91.3599 60.3378 91.3802L59.9543 91.5995C59.9162 91.6221 59.9009 91.6448 59.906 91.6675C59.9143 91.7009 59.9329 91.7309 59.9594 91.7532L61.6459 93.6986L61.6713 93.7163C61.7028 93.7349 61.7388 93.7445 61.7755 93.744C61.8098 93.7474 61.8443 93.7403 61.8745 93.7238L62.1285 93.5802C62.1768 93.555 62.1971 93.5298 62.192 93.5071C62.1903 93.4843 62.1804 93.4628 62.1641 93.4466L61.8694 93.1039L62.9693 92.4739L63.5636 92.6453C63.5986 92.6537 63.6343 92.6587 63.6703 92.6604C63.7167 92.6608 63.7624 92.6486 63.8024 92.6251L64.0564 92.4815C64.0675 92.4764 64.0768 92.4682 64.0831 92.4579C64.0895 92.4476 64.0925 92.4356 64.0919 92.4235C64.0877 92.4099 64.0801 92.3975 64.0699 92.3874C64.0597 92.3773 64.0473 92.3698 64.0335 92.3655ZM61.5291 92.7209L60.7671 91.8464L62.2911 92.2824L61.5291 92.7209ZM69.0881 89.46L66.4897 87.9732C66.4582 87.9546 66.4222 87.945 66.3856 87.9455C66.3515 87.9425 66.3174 87.9486 66.2865 87.9631L66.0503 88.0992C66.0046 88.1269 65.9842 88.1546 65.9919 88.1849C65.9995 88.2151 66.0046 88.2353 66.0096 88.2479L66.6751 89.3869L64.6863 89.0064H64.5745C64.5231 89.0008 64.4713 89.0123 64.4272 89.0391L64.191 89.1752C64.1656 89.1903 64.1529 89.208 64.158 89.2307C64.1605 89.2439 64.1662 89.2563 64.1746 89.2668C64.183 89.2773 64.1939 89.2857 64.2062 89.2911L66.8021 90.7779C66.8337 90.7962 66.8697 90.8058 66.9063 90.8057C66.9403 90.8086 66.9744 90.8025 67.0053 90.788L67.2873 90.6242C67.2984 90.62 67.3078 90.6123 67.3142 90.6023C67.3206 90.5923 67.3236 90.5806 67.3228 90.5688C67.3191 90.5557 67.3127 90.5435 67.304 90.5331C67.2952 90.5227 67.2843 90.5142 67.272 90.5083L65.6998 89.6087L67.0587 89.8607H67.173C67.2129 89.8622 67.2525 89.8526 67.2873 89.8329L67.4701 89.7296C67.483 89.7238 67.494 89.7146 67.502 89.7031C67.5101 89.6916 67.5149 89.6781 67.5159 89.6641C67.5142 89.6413 67.5082 89.6191 67.4981 89.5986L67.0561 88.8401L68.6284 89.7397C68.6602 89.7574 68.696 89.767 68.7325 89.7674C68.766 89.7706 68.7997 89.7636 68.829 89.7473L69.111 89.586C69.1364 89.5709 69.1491 89.5532 69.1465 89.5305C69.144 89.5147 69.1372 89.4998 69.1269 89.4874C69.1167 89.475 69.1033 89.4656 69.0881 89.46ZM76.4897 85.2188L76.2052 85.0575C76.1733 85.0396 76.1377 85.0292 76.101 85.0273C76.0668 85.025 76.0326 85.032 76.002 85.0475L74.8488 85.7077L74.1834 85.3272L75.2298 84.7249C75.2552 84.7098 75.2679 84.6921 75.2654 84.6695C75.2617 84.6564 75.2553 84.6442 75.2466 84.6338C75.2378 84.6234 75.2269 84.6149 75.2146 84.609L74.9301 84.4452C74.8978 84.4287 74.8623 84.4192 74.826 84.4175C74.7917 84.4152 74.7575 84.4222 74.7269 84.4376L73.6804 85.0374L73.0378 84.672L74.163 84.0269C74.1737 84.0222 74.1826 84.0143 74.1885 84.0044C74.1944 83.9944 74.1971 83.9829 74.1961 83.9714C74.1935 83.9582 74.1878 83.9458 74.1794 83.9353C74.171 83.9248 74.1602 83.9164 74.1478 83.9109L73.8633 83.7471C73.8308 83.7312 73.7954 83.7217 73.7592 83.7194C73.7249 83.7172 73.6907 83.7241 73.6601 83.7396L72.159 84.5989C72.1336 84.614 72.1209 84.6317 72.126 84.6543C72.1278 84.6678 72.1332 84.6805 72.1417 84.6911C72.1502 84.7018 72.1614 84.71 72.1742 84.7148L74.7701 86.2041C74.8026 86.2201 74.838 86.2295 74.8742 86.2319C74.9085 86.2341 74.9427 86.2272 74.9733 86.2117L76.4973 85.3347C76.5082 85.3304 76.5173 85.3226 76.5233 85.3126C76.5292 85.3026 76.5317 85.2909 76.5303 85.2793C76.527 85.2684 76.5214 85.2583 76.514 85.2497C76.5066 85.241 76.4974 85.2339 76.4871 85.2289L76.4897 85.2188ZM73.6957 86.8165L71.4935 85.5565L72.1209 85.1961C72.1315 85.1915 72.1404 85.1836 72.1463 85.1737C72.1523 85.1637 72.1549 85.1522 72.1539 85.1407C72.1514 85.1275 72.1457 85.1151 72.1373 85.1046C72.1289 85.094 72.118 85.0857 72.1056 85.0802L71.8212 84.9164C71.7886 84.9004 71.7532 84.891 71.717 84.8887C71.6828 84.8864 71.6485 84.8934 71.618 84.9089L69.8933 85.8967C69.8827 85.9014 69.8738 85.9092 69.8678 85.9192C69.8619 85.9291 69.8593 85.9406 69.8603 85.9521C69.8628 85.9653 69.8685 85.9777 69.8769 85.9883C69.8853 85.9988 69.8962 86.0072 69.9085 86.0126L70.193 86.1764C70.2251 86.1935 70.2608 86.203 70.2972 86.2041C70.3314 86.2064 70.3656 86.1994 70.3962 86.184L71.0236 85.8261L73.2258 87.0861C73.2577 87.1041 73.2933 87.1145 73.3299 87.1164C73.3642 87.1186 73.3984 87.1117 73.429 87.0962L73.7109 86.9349C73.722 86.9299 73.7313 86.9217 73.7377 86.9114C73.744 86.901 73.7471 86.8891 73.7465 86.877C73.7427 86.8659 73.7367 86.8558 73.7289 86.8471C73.721 86.8384 73.7114 86.8315 73.7008 86.8266L73.6957 86.8165ZM78.4404 83.8757C78.4212 83.7593 78.3672 83.6513 78.2855 83.5657C78.1743 83.4466 78.0479 83.3424 77.9095 83.2557C77.719 83.1373 77.5209 83.0239 77.3126 82.9155C77.1403 82.8268 76.9601 82.7542 76.7742 82.6988C76.5961 82.6489 76.4129 82.6193 76.2281 82.6106C76.0461 82.6045 75.8642 82.6223 75.687 82.6635C75.5026 82.7091 75.3255 82.7803 75.1613 82.8752L74.3027 83.3792C74.2773 83.3943 74.2646 83.412 74.2672 83.4347C74.2707 83.4475 74.2768 83.4594 74.2851 83.4698C74.2934 83.4802 74.3037 83.4888 74.3154 83.4951L76.9139 84.9819C76.9453 85.0006 76.9814 85.0102 77.018 85.0097C77.052 85.0126 77.0862 85.0065 77.1171 84.992L77.9934 84.488C78.1328 84.4155 78.2556 84.3151 78.354 84.1932C78.424 84.1066 78.4568 83.9962 78.4455 83.8857L78.4404 83.8757ZM77.6784 84.0319C77.6248 84.1021 77.5563 84.1598 77.4777 84.2007L76.9926 84.4779L75.1841 83.4523L75.6489 83.1827C75.7448 83.1294 75.8473 83.0888 75.9537 83.0617C76.0545 83.0389 76.1578 83.0296 76.2611 83.034C76.3633 83.0384 76.4648 83.0545 76.5633 83.0819C76.6607 83.1107 76.7551 83.1487 76.8453 83.1953C77.0536 83.3028 77.2517 83.4162 77.4396 83.5355C77.5129 83.5808 77.5795 83.636 77.6378 83.6993C77.6843 83.7461 77.7153 83.8059 77.7267 83.8706C77.7328 83.9314 77.7166 83.9922 77.6809 84.042L77.6784 84.0319ZM70.1041 88.8905L67.5057 87.4011C67.4734 87.3846 67.4379 87.3752 67.4016 87.3734C67.3673 87.3712 67.3331 87.3781 67.3025 87.3936L67.0205 87.5549C67.0099 87.5595 67.001 87.5674 66.9951 87.5773C66.9892 87.5873 66.9865 87.5988 66.9875 87.6103C66.9894 87.6238 66.9948 87.6365 67.0033 87.6471C67.0118 87.6578 67.023 87.6659 67.0358 87.6708L69.6342 89.1601C69.6665 89.1766 69.702 89.1861 69.7384 89.1878C69.7718 89.1898 69.8051 89.1828 69.8349 89.1677L70.1168 89.0064C70.1281 89.0017 70.1377 88.9935 70.144 88.9831C70.1504 88.9727 70.1533 88.9606 70.1524 88.9484C70.1497 88.9356 70.1439 88.9236 70.1355 88.9135C70.1271 88.9034 70.1163 88.8955 70.1041 88.8905ZM71.6434 88.0085L69.4386 86.7485L70.066 86.3906C70.0769 86.3855 70.0858 86.3772 70.0918 86.3668C70.0977 86.3564 70.1002 86.3445 70.099 86.3327C70.0968 86.3197 70.0911 86.3075 70.0827 86.2973C70.0742 86.2871 70.0632 86.2793 70.0508 86.2747L69.7663 86.1109C69.7347 86.0926 69.6987 86.0831 69.6622 86.0832C69.6281 86.0803 69.594 86.0864 69.5631 86.1008L67.8384 87.0887C67.8273 87.0935 67.8181 87.1017 67.8122 87.1122C67.8062 87.1226 67.8039 87.1347 67.8054 87.1466C67.8077 87.1596 67.8133 87.1718 67.8218 87.182C67.8302 87.1921 67.8412 87.1999 67.8537 87.2046L68.1382 87.3684C68.1698 87.3866 68.2057 87.3962 68.2423 87.3961C68.2766 87.3995 68.3112 87.3925 68.3414 87.3759L68.9687 87.0181L71.1709 88.2781C71.2034 88.2941 71.2388 88.3035 71.2751 88.3058C71.3093 88.3081 71.3435 88.3011 71.3741 88.2857L71.6561 88.1244C71.6814 88.1093 71.6942 88.0916 71.6916 88.0689C71.687 88.0544 71.6788 88.0412 71.6677 88.0306C71.6566 88.0201 71.643 88.0124 71.6281 88.0085H71.6434Z" fill="#7DB834"/>
<path opacity="0.2" d="M71.28 114.728L69.2963 112.49L54.3433 103.895L53.9217 103.655L53.2359 103.262L53.1876 103.234H53.2054L52.545 102.859L49.8475 101.317C49.3268 100.964 48.547 101.682 48.2422 102.403C48.1948 102.51 48.159 102.623 48.1356 102.738C48.0939 102.866 48.0922 103.004 48.1307 103.133C48.1693 103.262 48.2462 103.376 48.3515 103.461L50.5536 104.721L51.1505 105.064L51.6458 105.346L51.6916 105.371L52.2605 105.696L52.2834 105.717L52.7634 105.986L67.9755 114.726L70.8711 115.295L71.6585 115.449C71.6764 115.452 71.695 115.452 71.7126 115.447C71.7303 115.442 71.7465 115.433 71.7601 115.421C71.7803 115.4 71.7916 115.372 71.7916 115.343C71.7916 115.314 71.7803 115.286 71.7601 115.265L71.28 114.728Z" fill="black"/>
<path d="M50.7671 103.771L51.0363 103.925L51.3615 104.111L68.3439 113.864C68.2423 113.639 68.321 113.188 68.5522 112.757C68.824 112.253 69.238 111.855 69.5352 111.84L52.6416 102.136L52.0193 101.78C52.4079 102.035 51.1608 104.018 50.7671 103.771Z" fill="#455A64"/>
<path d="M52.6137 102.118L52.0091 101.775C51.8364 101.672 51.5011 101.977 51.2268 102.383C50.8458 102.919 50.5359 103.643 50.7645 103.771L51.209 104.023L51.3691 104.111C51.143 103.97 51.4503 103.26 51.8313 102.72C52.1057 102.332 52.4181 102.035 52.5933 102.108L52.6137 102.118Z" fill="#EBEBEB"/>
<path d="M52.461 102.035C52.0623 101.783 50.8177 103.784 51.2165 104.028L51.821 104.373C51.4222 104.121 52.6668 102.136 53.0656 102.38L52.461 102.035Z" fill="#7DB834"/>
<path d="M53.642 102.708L53.0451 102.367C52.6539 102.115 51.4347 104.038 51.7751 104.343L51.7954 104.358L52.3999 104.698C51.9986 104.444 53.2458 102.461 53.642 102.708Z" fill="#EBEBEB"/>
<path d="M52.0168 101.778C51.8466 101.669 51.5215 101.977 51.2345 102.385C50.8586 102.912 50.5512 103.61 50.762 103.764L48.2424 102.327C48.1469 102.251 48.0771 102.148 48.0422 102.031C48.0072 101.914 48.0088 101.79 48.0468 101.674C48.1865 100.946 49.045 100.019 49.5911 100.389L52.0168 101.778Z" fill="#F28F8F"/>
<path d="M71.1455 113.957C70.9372 114.237 70.9575 114.375 70.9575 114.375L68.3439 113.871C68.0899 113.478 68.255 112.841 68.6131 112.384L68.7274 112.45L71.1455 113.957Z" fill="#F28F8F"/>
<path d="M71.6685 114.514L70.9573 114.375C70.9573 114.375 70.9243 114.237 71.1453 113.957L71.765 114.345C71.7838 114.364 71.7943 114.39 71.7943 114.417C71.7943 114.444 71.7838 114.469 71.765 114.489C71.7522 114.5 71.7368 114.509 71.7199 114.513C71.7031 114.518 71.6855 114.518 71.6685 114.514Z" fill="#37474F"/>
<path d="M69.5349 111.84L71.3282 113.856C71.2566 113.868 71.1912 113.903 71.1427 113.957L68.7247 112.445L68.6104 112.379C68.7146 112.227 68.8516 112.1 69.0115 112.007C69.1714 111.913 69.3502 111.856 69.5349 111.84Z" fill="#FFA8A7"/>
<path d="M71.1455 113.957C71.1673 113.928 71.1951 113.904 71.2271 113.886C71.2591 113.869 71.2945 113.859 71.3309 113.856L71.7653 114.345L71.1455 113.957Z" fill="#455A64"/>
<path opacity="0.2" d="M68.613 112.377L48.293 101.067C48.1717 101.253 48.0856 101.458 48.039 101.674C48.001 101.79 47.9994 101.914 48.0343 102.031C48.0693 102.148 48.1391 102.251 48.2345 102.327L50.7745 103.771L51.0438 103.925L51.3689 104.111L68.3513 113.864C68.0237 113.377 68.3742 112.644 68.613 112.377Z" fill="black"/>
</svg>
