<svg xmlns="http://www.w3.org/2000/svg" width="52.555mm" height="59.972mm" viewBox="0 0 148.976 170">
  <title>afib_logo_footer_en</title>
  <g>
    <path d="M14.156,152.517l-.988-.134a4.782,4.782,0,0,0-.7-.056,6.058,6.058,0,0,0-1.022.074c-.277.053-.517.086-.7.116q-1.532-4.251-3.456-9.283t-3.569-9.121Q2.561,131.223,0,125c.505,0,1.179.04,2.021.113s1.342.1,1.505.1c.51,0,1.183-.034,2.023-.1S6.89,125,7.054,125c.829,2.791,1.956,6.089,3.369,9.92q1.843,4.972,3.733,9.944,1.8-4.328,2.684-6.581,1.328-3.286,2.526-6.616,1.043-2.888,2.287-6.667l1.846.137L25.34,125q-1.965,4.537-3.926,9.168t-3.73,9.042q-1.889,4.734-3.528,9.306Z" fill="#fff"/>
    <path d="M26.748,152.523v-27.5q.677,0,1.764.1c.716.07,1.13.1,1.239.1.458,0,.831-.018,1.127-.041,1.151-.1,1.778-.159,1.882-.159v27.5c-.454,0-.83-.008-1.126-.036-1.142-.1-1.775-.16-1.883-.16-.451,0-1.041.033-1.763.1s-1.134.1-1.24.1Z" fill="#fff"/>
    <path d="M50.322,130.19h-.6a5.708,5.708,0,0,0-1.76-2.567,4.433,4.433,0,0,0-2.85-.924,4.6,4.6,0,0,0-3.328,1.067,3.819,3.819,0,0,0-1.083,2.861c0,1.437,1.04,2.736,3.125,3.881q5.694,3.126,5.9,3.288a7.749,7.749,0,0,1,3.166,6.4,7.878,7.878,0,0,1-2.964,6.322,11.5,11.5,0,0,1-7.659,2.488,13.93,13.93,0,0,1-3.431-.424,10.262,10.262,0,0,1-3.027-1.3c.321-1.118.563-2.018.726-2.707s.306-1.474.437-2.351h.763a5.3,5.3,0,0,0,1.926,3.225A5.717,5.717,0,0,0,43.27,150.6a5.185,5.185,0,0,0,3.346-1.083,3.745,3.745,0,0,0,1.345-3.086q0-2.56-3.091-4.238-2.883-1.524-5.736-3.046a7.661,7.661,0,0,1-3.127-6.447,7.935,7.935,0,0,1,2.327-5.925,9.463,9.463,0,0,1,6.937-2.48,11.833,11.833,0,0,1,3.793.6,6.98,6.98,0,0,1,2.548,1.324c-.3.773-.526,1.418-.686,1.918-.265.914-.466,1.6-.6,2.051Z" fill="#fff"/>
    <path d="M67.211,127.862v24.661c-.455,0-.831-.008-1.124-.036-1.154-.1-1.783-.16-1.886-.16q-.682,0-1.767.1c-.717.068-1.137.1-1.236.1V127.862c-1.419,0-2.661.048-3.719.14s-2.3.236-3.744.422c.05-.372.1-.7.141-.982a5.345,5.345,0,0,0-.022-1.722c-.054-.282-.093-.52-.119-.7H74.389c-.063.368-.107.7-.14.981a4.16,4.16,0,0,0-.063.7,5.585,5.585,0,0,0,.08,1.028c.052.275.092.511.123.7-1.956-.241-3.131-.372-3.528-.4-1.207-.106-2.419-.162-3.65-.162Z" fill="#fff"/>
    <path d="M77.553,141.352V125.018c.458,0,1.044.032,1.767.1s1.131.1,1.243.1c.452,0,.832-.018,1.119-.041,1.151-.1,1.784-.159,1.884-.159v13.169q0,1.522.024,3a17.676,17.676,0,0,0,.3,2.983,12.739,12.739,0,0,0,.662,2.438,5.833,5.833,0,0,0,1.425,1.948,6.451,6.451,0,0,0,4.569,1.721A7.9,7.9,0,0,0,95,149.2a8,8,0,0,0,2.687-3.764,10.566,10.566,0,0,0,.6-3.287q.121-2.118.121-5V125.018l1.605.12,1.6-.12v14.255a26.432,26.432,0,0,1-.561,6.445,8.944,8.944,0,0,1-3.687,5.166,10.123,10.123,0,0,1-3.49,1.626,16.8,16.8,0,0,1-4.09.5,16.008,16.008,0,0,1-7.059-1.408,8.282,8.282,0,0,1-4.531-5.325,14.122,14.122,0,0,1-.481-2.379,20.536,20.536,0,0,1-.163-2.546Z" fill="#fff"/>
    <path d="M113.163,125.018v24.418c1.711,0,3.166-.039,4.4-.118,1.209-.081,2.811-.228,4.778-.439-.053.3-.089.6-.132.922a6.6,6.6,0,0,0-.065.8c0,.185.036.464.079.841s.1.671.118.883H107.148V125.018c.457,0,1.041.032,1.763.1s1.138.1,1.247.1c.454,0,.825-.018,1.124-.041,1.145-.1,1.771-.159,1.881-.159Z" fill="#fff"/>
    <path d="M130.973,141.7h7.333l-3.571-9.347-3.762,9.347Zm8.248,2.443h-9.337c-.86,2.436-1.48,4.217-1.864,5.367s-.7,2.156-.951,3.015l-1.879-.2-1.921.2,11.466-27.869,1.522.119,1.526-.119,11.193,27.869c-.486,0-1.142-.028-1.968-.1s-1.324-.1-1.485-.1q-.715,0-1.962.1c-.831.068-1.325.1-1.489.1-.59-1.894-1.038-3.325-1.359-4.287-.512-1.551-1-2.911-1.492-4.095Z" fill="#fff"/>
    <path d="M15.609,163.846v-8.629c.24,0,.551.018.933.052s.6.054.656.054q.36,0,.592-.021c.608-.056.94-.085,1-.085v6.957c0,.537.006,1.064.012,1.585a9.136,9.136,0,0,0,.159,1.577,6.81,6.81,0,0,0,.35,1.289,3.05,3.05,0,0,0,.751,1.025,3.4,3.4,0,0,0,2.415.91,4.164,4.164,0,0,0,2.35-.571A4.207,4.207,0,0,0,26.242,166a5.563,5.563,0,0,0,.318-1.733q.063-1.122.062-2.644v-6.407l.848.064.848-.064v7.529a14.088,14.088,0,0,1-.3,3.405,4.7,4.7,0,0,1-1.949,2.727,5.229,5.229,0,0,1-1.841.857,8.7,8.7,0,0,1-2.162.265,8.5,8.5,0,0,1-3.728-.74,4.386,4.386,0,0,1-2.391-2.813,7.589,7.589,0,0,1-.257-1.258,11.285,11.285,0,0,1-.084-1.343Z" fill="#fff"/>
    <path d="M31.981,169.7V155.217h2.1q1.4,1.525,3.027,3.261.912.952,3.1,3.325t3.019,3.326v-9.912l.846.064.847-.064v14.529l-1.8-.021q-1.8-1.99-3.581-4-1.861-2.075-3.557-3.855l-2.309-2.415v10.294l-.847-.106-.847.064Z" fill="#fff"/>
    <path d="M48.607,169.746V155.217c.24,0,.551.018.932.052s.6.054.657.054q.36,0,.592-.021c.607-.056.939-.085,1-.085v14.529c-.24,0-.437-.007-.593-.021-.608-.056-.939-.085-1-.085-.24,0-.551.018-.932.052s-.6.054-.657.054Z" fill="#fff"/>
    <path d="M61.59,169.74l-.52-.07a2.822,2.822,0,0,0-.369-.03,2.98,2.98,0,0,0-.541.041c-.147.026-.272.046-.371.059q-.8-2.244-1.821-4.9t-1.885-4.818q-.615-1.524-1.97-4.808.4,0,1.071.056c.444.036.708.056.793.056.27,0,.625-.02,1.071-.056s.708-.056.794-.056q.654,2.2,1.777,5.234.975,2.63,1.971,5.257.954-2.289,1.42-3.478.7-1.735,1.334-3.495.55-1.526,1.207-3.518l.974.07.974-.07q-1.036,2.394-2.075,4.84t-1.97,4.776q-1,2.5-1.864,4.913Z" fill="#fff"/>
    <path d="M69.512,155.217h8.07c-.029.156-.055.317-.076.487a3.54,3.54,0,0,0-.031.424,3.446,3.446,0,0,0,.041.444c.029.2.05.353.066.466q-1.083-.149-2.236-.222t-2.659-.075V161.3h2.2c.552,0,.978-.011,1.282-.033s.744-.073,1.324-.158c-.029.155-.054.317-.075.487a3.342,3.342,0,0,0-.031.424,3.489,3.489,0,0,0,.042.444c.028.2.05.354.064.466q-.508-.063-1.261-.127c-.5-.043-.95-.063-1.345-.063h-2.2v5.378q1.506,0,2.659-.074t2.236-.221c-.029.155-.055.317-.076.488a3.511,3.511,0,0,0-.031.423,3.416,3.416,0,0,0,.041.444c.029.2.05.353.066.466h-8.07V155.217Z" fill="#fff"/>
    <path d="M83.214,156.383v5.653a1.864,1.864,0,0,0,.275.022h.277q2.772,0,2.774-3.039a5.611,5.611,0,0,0-.107-1.055,1.735,1.735,0,0,0-.974-1.351,4.322,4.322,0,0,0-1.631-.23Zm-3.177,13.363V155.217h4.512q1.459,0,2.138.052a3.4,3.4,0,0,1,1.293.37,3.215,3.215,0,0,1,1.842,3.03,3.611,3.611,0,0,1-.89,2.5,4.308,4.308,0,0,1-2.414,1.312q.827,1.442,2.308,3.728,1,1.525,1.44,2.224l.827,1.313c-.269,0-.633-.019-1.091-.054s-.738-.052-.837-.052c-.268,0-.632.018-1.09.052s-.732.054-.817.054L84.739,165.3l-1.377-2.35h-.148v6.8c-.239,0-.439-.007-.594-.021-.606-.056-.938-.085-1-.085-.24,0-.551.018-.931.052s-.6.054-.657.054Z" fill="#fff"/>
    <path d="M99.945,157.948h-.318a2.978,2.978,0,0,0-.931-1.354,2.344,2.344,0,0,0-1.5-.488,2.416,2.416,0,0,0-1.756.562,2.018,2.018,0,0,0-.573,1.511q0,1.141,1.653,2.052,3.006,1.647,3.112,1.733a4.1,4.1,0,0,1,1.674,3.383,4.163,4.163,0,0,1-1.568,3.342A6.08,6.08,0,0,1,95.689,170a7.33,7.33,0,0,1-1.812-.223,5.307,5.307,0,0,1-1.6-.687c.168-.589.3-1.065.379-1.429s.163-.779.233-1.24h.4a2.811,2.811,0,0,0,1.017,1.7,3.013,3.013,0,0,0,1.907.609,2.745,2.745,0,0,0,1.769-.571,1.975,1.975,0,0,0,.708-1.63,2.587,2.587,0,0,0-1.631-2.241q-1.524-.8-3.027-1.607a4.036,4.036,0,0,1-1.652-3.405,4.19,4.19,0,0,1,1.227-3.129,5,5,0,0,1,3.664-1.311,6.21,6.21,0,0,1,2,.318,3.707,3.707,0,0,1,1.346.7c-.157.409-.275.748-.36,1.017-.142.48-.247.84-.319,1.079Z" fill="#fff"/>
    <path d="M103.906,169.746V155.217c.241,0,.551.018.933.052s.6.054.655.054q.36,0,.594-.021c.606-.056.939-.085,1-.085v14.529q-.362,0-.595-.021c-.607-.056-.939-.085-1-.085-.239,0-.552.018-.931.052s-.6.054-.657.054Z" fill="#fff"/>
    <path d="M116.572,156.721v13.025q-.362,0-.593-.021c-.607-.056-.94-.085-1-.085-.241,0-.551.018-.933.052s-.6.054-.656.054V156.721c-.748,0-1.4.024-1.959.074s-1.219.122-1.982.221c.029-.195.055-.37.075-.519a2.816,2.816,0,0,0,.032-.391,2.928,2.928,0,0,0-.041-.519c-.029-.148-.05-.271-.066-.37h10.909c-.029.2-.052.37-.075.519a2.717,2.717,0,0,0-.031.37,2.879,2.879,0,0,0,.042.54c.029.149.05.271.064.37q-1.547-.189-1.865-.21c-.635-.058-1.278-.085-1.926-.085Z" fill="#fff"/>
    <path d="M125.743,169.746v-6.123q-.66-1.122-1.717-3.114-2.581-4.831-2.837-5.3c.267,0,.631.019,1.089.056s.732.056.817.056c.268,0,.631-.02,1.09-.056s.73-.056.816-.056l1.8,3.774q.529,1.123.784,1.589a8.508,8.508,0,0,0,.549.954,16.714,16.714,0,0,0,1.59-2.84q.486-1,1.587-3.477l1.039.07,1.017-.07q-.679,1.186-1.525,2.671-.764,1.313-1.525,2.627-.656,1.185-1.4,2.691v6.546q-.36,0-.593-.021c-.608-.056-.939-.085-1-.085-.24,0-.55.018-.93.052s-.6.054-.657.054Z" fill="#fff"/>
    <g>
      <path d="M34.032,44.113c4.476.283,7.216,3.443,9.737,6.917,6.061,8.342,9.694,18.15,15.923,26.394,1.49,1.964,12.673,17.37,14.372,11.254.433-1.822.433-1.822.065-6.068-.437-5.048-10.361-43.126,7.928-54.96,11.214-7.246,12.179,9.672,20.532,10.423,4.541.408,8.065-5.787,10.057-10.334a49.731,49.731,0,0,0-88.8,22.348C25.8,46.627,29.162,43.8,34.032,44.113Z" fill="#fff" fill-rule="evenodd"/>
      <path d="M112.923,28.106c-2.332,6.994-7.084,18.2-13.36,16.378-8.436-2.455-13.038-23.56-20.5-12.937-7.483,10.641-1.52,46.727-3.935,57.088a8,8,0,0,1-3.816,5.3C65.2,96.819,57.926,86.089,55.9,83.025c-5.507-8.276-9.566-17.128-15.7-25.9-2.117-3.007-6.656-9.309-10.737-8.408a9.107,9.107,0,0,0-5.934,3.773,50.341,50.341,0,0,0-.276,5.252,49.729,49.729,0,1,0,89.666-29.633Z" fill="#fff" fill-rule="evenodd"/>
      <path d="M131.947,47.561a63.037,63.037,0,0,0-6.559-19.879A60.537,60.537,0,0,0,97.873,3.762,61.819,61.819,0,0,1,127.9,48.216c5.095,33.042-15.957,64.028-47.228,70.085.585-.079,1.161-.143,1.737-.233,23.577-3.833,41.685-21.464,47.922-43.656,0-.008.012-.015.012-.023l.268-1.014A63.3,63.3,0,0,0,131.947,47.561Z" fill="#fff" fill-rule="evenodd"/>
      <path d="M61.919,4.344c21.292-4.352,42.234,4.484,55.062,21.061C104.46,6.751,82.221-3.52,59.572,1.1,29.03,7.342,9.314,38.332,15.552,70.31A60.564,60.564,0,0,0,27.071,95.843a61.057,61.057,0,0,1-9.183-22.29C11.649,41.566,31.367,10.588,61.919,4.344Z" fill="#fff" fill-rule="evenodd"/>
      <path d="M20.151,69.733c3.993,28.688,29.475,48.885,57.308,45.212A50.593,50.593,0,0,0,109.9,96.807a53.661,53.661,0,0,1-29.89,14.274C52.566,114.707,27.259,96.631,20.151,69.733Z" fill="#fff" fill-rule="evenodd"/>
    </g>
  </g>
</svg>
